<svg xmlns="http://www.w3.org/2000/svg" width="300" height="300" viewBox="0 0 110.003 110.003"><defs><style>.cls-1{fill:#fff;fill-rule:evenodd}</style></defs><path id="earth_n" class="cls-1" d="M41.077 15.233l.053.408-.612.127-.081.87h.733l.975-.094.5-.6-.535-.208-.289-.336-.44-.713-.211-1.007-.827.168-.232.355v.4l.4.273zm-.7.335l.044-.545-.485-.209-.679.157-.5.808v.521h.587zM26.4 17.883l-.149.385h-.72v.373h.169l.025.183.443-.037.277-.172.072-.347.359-.031.141-.292-.329-.068zm-1.863.678l-.028.365.524-.044.054-.367-.314-.248zm31.456 11.655c-.008-.8-.049-1.6-.124-2.389a27.331 27.331 0 0 0-1.82-7.488c-.07-.175-.135-.353-.209-.526a27.533 27.533 0 0 0-5.158-7.969c-.141-.152-.285-.3-.429-.448a26.933 26.933 0 0 0-1.256-1.228 27.444 27.444 0 0 0-37.116.117 27.833 27.833 0 0 0-3.144 3.433 27.487 27.487 0 1 0 46.249 29.275 27.236 27.236 0 0 0 2.245-6.056c.13-.54.242-1.081.339-1.63A27.5 27.5 0 0 0 56 30.5c0-.1-.006-.189-.007-.284zm-5.176-10.991l.159-.179c.209.406.4.819.592 1.237l-.26-.01-.491.068v-1.116zm-3.974-4.8v-1.228q.648.687 1.247 1.418l-.5.737-1.732-.016-.109-.361zm-33.172-3.051v-.047h.551l.047-.189h.9v.394l-.259.346h-1.24v-.5zm.88 1.227s.551-.094.6-.094a2.13 2.13 0 0 1 0 .55l-1.242.078-.236-.283zm38.018 10.916h-2.012l-1.226-.917-1.291.126v.787h-.408l-.441-.313-2.235-.567v-1.445l-2.832.221-.878.472h-1.124l-.551-.055-1.365.758v1.426l-2.79 2.013.232.86h.566l-.148.819-.4.146-.022 2.14 2.412 2.746h1.05l.063-.167h1.887l.544-.5h1.07l.587.588 1.595.165-.212 2.117 1.77 3.125-.932 1.782.063.839.734.732v2.018l.964 1.3v1.676h.832a25.227 25.227 0 0 1-42.8-25.782v-.792l.9-1.1q.47-.887 1.008-1.731l.041.458-1.04 1.277c-.325.613-.628 1.24-.9 1.883v1.437l1.049.5v2l1.006 1.716.815.125.105-.588-.965-1.487-.19-1.447h.567l.239 1.489L9.3 26.4l-.36.657.887 1.356 2.2.545V28.6l.881.126-.084.629.692.127 1.069.292L16.1 31.5l1.928.146.189 1.573-1.32.923-.062 1.4-.189.86 1.909 2.39.145.821s.692.188.777.188 1.552 1.112 1.552 1.112v4.32l.524.147-.353 1.992.881 1.175-.163 1.975 1.164 2.046 1.494 1.305 1.5.027.147-.483-1.1-.93.063-.462.2-.566.042-.577-.747-.023-.381-.47.62-.6.08-.446-.692-.2.041-.418.986-.149 1.5-.721.5-.923 1.573-2.013-.357-1.575.483-.838 1.447.044.974-.771.314-3.038 1.08-1.372.189-.881-.985-.316-.65-1.067-2.223-.023-1.762-.672-.084-1.257-.584-1.026-1.594-.027-.921-1.446-.818-.4-.042.441-1.488.088-.545-.759-1.553-.316-1.279 1.484-2.01-.342-.15-2.269-1.469-.251.589-1.113-.17-.639-1.931 1.291-1.215-.148-.433-.949.265-.978.67-1.234 1.542-.78h2.977l-.008.908 1.07.5-.085-1.552.771-.776 1.556-1.023.106-.719 1.554-1.618 1.65-.914-.146-.12 1.117-1.052.41.109.188.235.424-.47.1-.046-.465-.066-.472-.157v-.455l.25-.2h.551l.254.106.218.441.267-.041v-.038l.077.026.774-.119.11-.378.441.111v.41l-.41.282.06.449 1.4.432v.017l.322-.027.021-.607-1.111-.506-.063-.292.922-.314.041-.882-.964-.587-.063-1.487-1.321.649h-.472l.127-1.132-1.8-.424-.744.562v1.715l-1.338.424-.536 1.116-.581.094v-1.43l-1.258-.174-.629-.409-.253-.926 2.25-1.317 1.1-.335.111.74.613-.032.047-.372.642-.092.011-.13-.276-.114-.063-.394.788-.067.476-.5.026-.036h.006l.145-.149 1.657-.209.73.629-1.919 1.023 2.445.577.317-.818h1.069l.378-.713-.756-.189v-.9l-2.37-1.05-1.636.189-.923.483.063 1.174-.968-.147-.148-.649.924-.839L22.3 9.1l-.482.146-.209.566.629.106-.125.629-1.069.063-.167.418-1.551.043a4.251 4.251 0 0 0-.105-.88c-.062 0 1.216-.021 1.216-.021l.924-.9-.5-.252-.671.652-1.113-.063-.677-.923h-1.422L15.49 9.8h1.364l.124.4-.354.329 1.51.042.231.545-1.7-.063-.083-.42-1.069-.233-.567-.314-1.273.01A25.165 25.165 0 0 1 45.16 11.57l-.3.536-1.164.456-.491.533.113.621.6.084.362.9 1.036-.417.171 1.21h-.31l-.851-.126-.943.158-.913 1.29-1.305.2-.189 1.117.551.13-.16.718-1.3-.26-1.189.26-.252.662.206 1.389.7.327 1.171-.007.791-.071.241-.629 1.235-1.6.813.166.8-.724.149.566L46.7 20.39l-.241.323-.888-.047.342.484.546.12.641-.27-.014-.771.284-.143-.229-.242-1.314-.733-.346-.974h1.093l.349.346.946.817.04.981.975 1.038.363-1.423.675-.369.127 1.164.66.724 1.315-.023q.382.982.683 2zM16 15.494l.661-.314.6.143-.206.8-.645.2zm3.5 1.888v.518H18l-.566-.157.141-.362.725-.3h.991v.3h.209zm.7.724v.5l-.378.243-.471.087v-.83h.849zm-.425-.2V17.3l.519.473zm.236 1.21v.484l-.361.362h-.8l.126-.55.379-.033.078-.189zm-2-1.006h.834l-1.067 1.49-.441-.236.095-.629zm3.414.834v.489h-.8l-.22-.317v-.459h.063zm-.741-.672l.228-.24.386.24-.309.255zm32.293 6.523l.079-.093c.033.142.068.285.1.43zm-47.7-4.955v.787a26.66 26.66 0 0 1 .9-1.883z" transform="translate(26.501 24.501)"/></svg>