<svg xmlns="http://www.w3.org/2000/svg" viewBox="0 0 300 300"><defs><style>.a{fill:#fff}.b{fill:#ff4f19}.c{fill:#5c546a}.d{fill:#b9bbc1}.e{fill:#ffd200}.f{fill:#53dcff}.g{fill:#e9001e}.h{fill:#8b8996}</style></defs><title>enterpriseapps</title><path class="a" d="M31.2 65.5h237.6v146.22H31.2z"/><path class="b" d="M31.2 65.5h237.6v36.55H31.2z"/><path class="c" d="M266 47.2H34a21 21 0 0 0-21 21v166.3a4.6 4.6 0 0 0 4.6 4.6h265a4.6 4.6 0 0 0 4.6-4.6V68.2a21.1 21.1 0 0 0-21.2-21zM31.2 207.1V70a4.6 4.6 0 0 1 4.6-4.6h228.4a4.6 4.6 0 0 1 4.6 4.6v137.1a4.6 4.6 0 0 1-4.6 4.6H35.8a4.6 4.6 0 0 1-4.6-4.6z"/><path class="d" d="M291.6 230H8.4a4.6 4.6 0 0 0-4.6 4.6 18.3 18.3 0 0 0 18.3 18.3h255.8a18.3 18.3 0 0 0 18.3-18.3 4.6 4.6 0 0 0-4.6-4.6z"/><path class="e" d="M86 88.3H54a4.6 4.6 0 0 1 0-9.1h32a4.6 4.6 0 1 1 0 9.1z"/><path class="a" d="M168.3 88.3h-4.6a4.6 4.6 0 0 1 0-9.1h4.6a4.6 4.6 0 1 1 0 9.1zM191.1 88.3h-4.6a4.6 4.6 0 1 1 0-9.1h4.6a4.6 4.6 0 1 1 0 9.1zM214 88.3h-4.6a4.6 4.6 0 1 1 0-9.1h4.6a4.6 4.6 0 0 1 0 9.1zM236.8 88.3h-4.6a4.6 4.6 0 1 1 0-9.1h4.6a4.6 4.6 0 1 1 0 9.1z"/><path class="f" d="M131.7 198H54a4.6 4.6 0 0 1-4.6-4.6v-73.1a4.6 4.6 0 0 1 4.6-4.6h77.7a4.6 4.6 0 0 1 4.6 4.6v73.1a4.6 4.6 0 0 1-4.6 4.6z"/><path class="b" d="M241.4 124.9h-86.8a4.6 4.6 0 1 1 0-9.1h86.8a4.6 4.6 0 1 1 0 9.1z"/><path class="d" d="M191.1 161.4h-36.5a4.6 4.6 0 1 1 0-9.1h36.6a4.6 4.6 0 1 1-.1 9.1zM191.1 179.7h-36.5a4.6 4.6 0 1 1 0-9.1h36.6a4.6 4.6 0 1 1-.1 9.1zM191.1 198h-36.5a4.6 4.6 0 1 1 0-9.1h36.6a4.6 4.6 0 1 1-.1 9.1zM246 161.4h-36.6a4.6 4.6 0 1 1 0-9.1H246a4.6 4.6 0 1 1 0 9.1zM246 179.7h-36.6a4.6 4.6 0 1 1 0-9.1H246a4.6 4.6 0 1 1 0 9.1zM246 198h-36.6a4.6 4.6 0 1 1 0-9.1H246a4.6 4.6 0 1 1 0 9.1z"/><path class="g" d="M214 143.1h-59.4a4.6 4.6 0 1 1 0-9.1H214a4.6 4.6 0 0 1 0 9.1z"/><path class="h" d="M131.7 239.1h36.6a9.1 9.1 0 0 0 9.1-9.1h-54.8a9.1 9.1 0 0 0 9.1 9.1z"/></svg>