<svg xmlns="http://www.w3.org/2000/svg" xmlns:xlink="http://www.w3.org/1999/xlink" viewBox="0 0 1280 600"><defs><style>.cls-1,.cls-16{fill:url(#linear-gradient)}.cls-1{clip-rule:evenodd}.cls-2{opacity:.6}.cls-3{opacity:.15}.cls-4{fill:#b52e31}.cls-5{fill:#e23237}.cls-6{fill:#fff}.cls-7{fill:#5d87a1}.cls-8{fill:#f8981d}.cls-9{fill:#ee4323}.cls-12,.cls-40,.cls-9{opacity:.1}.cls-10{opacity:.35}.cls-11{fill:#4e8ef7}.cls-13,.cls-15{fill:#699f63}.cls-14{fill:#333}.cls-14,.cls-15,.cls-16{fill-rule:evenodd}.cls-17{clip-path:url(#clip-path)}.cls-18,.cls-35{fill:none}.cls-19{fill:url(#linear-gradient-3)}.cls-20{fill:url(#linear-gradient-4)}.cls-21{fill:url(#linear-gradient-5)}.cls-22{fill:url(#linear-gradient-6)}.cls-23{fill:url(#linear-gradient-7)}.cls-24{fill:url(#linear-gradient-8)}.cls-25{fill:url(#radial-gradient)}.cls-26{fill:#31c5f0}.cls-27{fill:#222}.cls-27,.cls-36{opacity:.2}.cls-28{opacity:.05}.cls-29{fill:#8e714e}.cls-30{fill:#442d22}.cls-31{fill:#a6a385}.cls-32{fill:#499d4a}.cls-33{fill:#58aa50}.cls-34{fill:#a4c639}.cls-35{stroke:#a4c639;stroke-linecap:round;stroke-linejoin:round;stroke-width:3px}.cls-37{fill:#a5b0b8}.cls-38{fill:#32383d}.cls-39{fill:#444}.cls-40{fill:#fc490b}</style><linearGradient id="linear-gradient" x1="1099.89" y1="335.83" x2="1089.41" y2="357.22" gradientUnits="userSpaceOnUse"><stop offset="0" stop-color="#41873f"/><stop offset=".33" stop-color="#418b3d"/><stop offset=".64" stop-color="#409637"/><stop offset=".93" stop-color="#3fa92d"/><stop offset="1" stop-color="#3fae2a"/></linearGradient><clipPath id="clip-path"><path id="_Clipping_Path_" data-name="&amp;lt;Clipping Path&amp;gt;" class="cls-1" d="M1095.9 330.8a1.4 1.4 0 0 0-1.4 0l-11.6 6.7a1.4 1.4 0 0 0-.7 1.2v13.4a1.4 1.4 0 0 0 .7 1.2l11.6 6.7a1.4 1.4 0 0 0 1.4 0l11.6-6.7a1.4 1.4 0 0 0 .7-1.2v-13.4a1.4 1.4 0 0 0-.7-1.2z"/></clipPath><linearGradient id="linear-gradient-3" x1="1093.41" y1="347.02" x2="1122.83" y2="325.28" gradientUnits="userSpaceOnUse"><stop offset=".14" stop-color="#41873f"/><stop offset=".4" stop-color="#54a044"/><stop offset=".71" stop-color="#66b748"/><stop offset=".91" stop-color="#6cc04a"/></linearGradient><linearGradient id="linear-gradient-4" x1="1081.76" y1="328.42" x2="1108.59" y2="328.42" gradientUnits="userSpaceOnUse"><stop offset=".09" stop-color="#6cc04a"/><stop offset=".29" stop-color="#66b748"/><stop offset=".6" stop-color="#54a044"/><stop offset=".86" stop-color="#41873f"/></linearGradient><linearGradient id="linear-gradient-5" x1="1081.76" y1="345.45" x2="1108.59" y2="345.45" xlink:href="#linear-gradient-4"/><linearGradient id="linear-gradient-6" x1="1081.76" y1="353.11" x2="1108.59" y2="353.11" xlink:href="#linear-gradient-4"/><linearGradient id="linear-gradient-7" x1="1082.24" y1="356.57" x2="1108.07" y2="356.57" xlink:href="#linear-gradient-4"/><linearGradient id="linear-gradient-8" x1="1112.25" y1="335.19" x2="1095.69" y2="368.96" xlink:href="#linear-gradient"/><radialGradient id="radial-gradient" cx="-2314.03" cy="1170.23" r=".02" gradientTransform="matrix(2291.67 0 0 -2218.75 5303237.11 2596941.67)" gradientUnits="userSpaceOnUse"><stop offset="0" stop-color="#34364e" stop-opacity=".98"/><stop offset="1" stop-color="#0c0824"/></radialGradient></defs><title>homebg</title><g id="Layer_1" data-name="Layer 1" class="cls-2"><g class="cls-3"><path class="cls-4" d="M960.1 532.6v-18.8h2.4l11.5 15.1v-15.1h2.3v18.7h-2.4l-11.4-15.2v15.2h-2.3zM994.9 531.8a13.9 13.9 0 0 1-4.9.9q-10.2 0-10.2-9.7t9.8-9.2a17.4 17.4 0 0 1 5.2.8v2.1a13.6 13.6 0 0 0-5-.9c-5.1 0-7.7 2.4-7.7 7.3s2.5 7.8 7.5 7.8l2.7-.3v-6.3h2.4v7.8zM998.7 525.3v-11.5h2.4v11.5c0 3.6 1.8 5.4 5.4 5.4s5.4-1.8 5.4-5.4v-11.5h2.4v11.5c0 4.9-2.6 7.4-7.8 7.4s-7.8-2.5-7.8-7.4zM1021 513.8v16.8h9.8v2h-12.2v-18.8h2.4zM1034.3 532.6h-2.5l9.3-21.2 9.3 21.2h-2.7l-2.4-5.9h-6.2l.7-2h4.7l-3.5-8.5-6.7 16.3zM1053 532.6v-18.8h8c3.6 0 5.4 1.5 5.4 4.5s-1.8 4.3-5.2 5.4l6.4 8.8h-3.2l-5.9-8.4v-1.6c3.6-.6 5.4-1.9 5.4-4.1s-1-2.6-3-2.6h-5.4v16.7h-2.5z"/><path class="cls-5" d="M915.3 508.8l19.2-6.8 19.7 6.7-3.2 25.4-16.5 9.1-16.2-9-2.9-25.4z"/><path class="cls-4" d="M954.2 508.7l-19.7-6.7v41.2l16.5-9.1 3.2-25.4z"/><path class="cls-6" d="M934.5 506.8l-11.9 26.6h4.5l2.4-6h10.7l2.6 6.1h4.2l-12.5-26.6zm0 8.5l4 8.4H931l3.5-8.4z"/></g><g class="cls-3"><path class="cls-7" d="M792.5 361h-4.8q-.3-12.2-1.4-22.9l-7.4 22.9h-3.7l-7.2-22.9q-.8 10.3-1 22.9h-4.4q.4-15.3 2.1-28.7h6l6.9 21.1 7-21.1h5.7q1.9 15.7 2.2 28.7m20.8-21.2q-2.9 15.9-7.7 23.1-3.7 5.6-8.2 5.6a8.1 8.1 0 0 1-2.9-.7v-2.6h2a4.8 4.8 0 0 0 3.4-1.1 4.2 4.2 0 0 0 1.5-3.1 20.9 20.9 0 0 0-1.2-4.9l-5.3-16.4h4.7l3.8 12.2q1.3 4.2 1.1 5.8a79.9 79.9 0 0 0 4.3-18.1h4.5z"/><path class="cls-8" d="M877.2 361h-13.6v-28.7h4.6v25.2h9.1v3.5zm-17.2.7l-5.3-2.6 1.3-1.3q3.4-3.9 3.4-11.7 0-14.2-11.2-14.2a10.6 10.6 0 0 0-8.5 3.6q-3.4 4-3.4 11.6t3 11.1q2.7 3.2 8.2 3.2a13.2 13.2 0 0 0 3.8-.5l6.9 4zm-17.1-6.4q-1.7-2.8-1.7-9 0-10.8 6.6-10.8a5.5 5.5 0 0 1 5.1 2.6q1.7 2.8 1.7 8.9 0 10.9-6.6 10.9a5.5 5.5 0 0 1-5.1-2.6m-8.6-2.2a7.6 7.6 0 0 1-2.7 6 10.5 10.5 0 0 1-7.2 2.3 14.4 14.4 0 0 1-8.2-2.7l1.2-2.5a14 14 0 0 0 6.2 1.7 6.5 6.5 0 0 0 4.1-1.1 3.9 3.9 0 0 0 1.6-3.2c0-1.7-1.2-3.2-3.4-4.4l-6-3.4a6.9 6.9 0 0 1-3.3-6.1 7.1 7.1 0 0 1 2.4-5.6 9.2 9.2 0 0 1 6.3-2.1 13.1 13.1 0 0 1 7.3 2.1l-1.1 2.5a14 14 0 0 0-5.5-1.2 4.9 4.9 0 0 0-3.4 1.1 3.6 3.6 0 0 0-1.3 2.7c0 1.7 1.2 3.2 3.5 4.4l6.2 3.4c2.2 1.6 3.4 3.3 3.4 6.1"/><path class="cls-7" d="M883 322.7a16 16 0 0 0-6.7 1c-.5.2-1.3.2-1.4.9a6.4 6.4 0 0 1 .6 1.1 8.1 8.1 0 0 0 1.8 2.1l2.2 1.6c1.3.8 2.9 1.3 4.2 2.2l2.3 1.6a4.5 4.5 0 0 0 1.1.9c-.2-.3-.3-.8-.6-1.1l-1-1a16.5 16.5 0 0 0-3.6-3.5c-1.1-.8-3.5-1.8-4-3.1h-.1a13.8 13.8 0 0 0 2.4-.6c1.2-.3 2.3-.2 3.5-.6l1.7-.5v-.3c-.6-.6-1.1-1.5-1.7-2a46.1 46.1 0 0 0-5.7-4.3c-1.1-.7-2.5-1.1-3.6-1.7a3.8 3.8 0 0 1-1.4-.7 14.1 14.1 0 0 1-1.4-2.7c-1-1.9-2-4-2.8-6a37.5 37.5 0 0 0-1.8-3.9 35 35 0 0 0-13.4-13 16.6 16.6 0 0 0-4.4-1.4h-2.6a13.8 13.8 0 0 1-1.6-1.2c-2-1.2-7.1-3.9-8.5-.4s1.4 4.5 2.2 5.6a15.9 15.9 0 0 1 1.8 2.6c.2.6.3 1.2.6 1.8a41.5 41.5 0 0 0 1.8 4.6 16.5 16.5 0 0 0 1.3 2.1 2.6 2.6 0 0 1 .9 1.2 9.9 9.9 0 0 0-.8 2.6c-1.2 3.9-.8 8.8 1 11.6.6.9 1.9 2.8 3.6 2s1.2-2.6 1.7-4.3a2.4 2.4 0 0 1 .2-1l1.4 2.9a19.8 19.8 0 0 0 4.5 4.6c.8.6 1.5 1.7 2.5 2.1h-.1a3.9 3.9 0 0 0-.8-.7 16.8 16.8 0 0 1-1.8-2.1 44.6 44.6 0 0 1-3.9-6.3c-.6-1.1-1-2.3-1.5-3.3a3 3 0 0 0-.6-1.2 13 13 0 0 0-1.7 2.4 19.6 19.6 0 0 0-1 5.2h-.1c-1.1-.3-1.5-1.4-1.9-2.4a15 15 0 0 1-.3-9.3c.2-.7 1.3-3 .9-3.7a6.2 6.2 0 0 0-1.3-1.6 14.1 14.1 0 0 1-1.2-2.2c-.8-1.9-1.2-4.1-2.1-6a18.7 18.7 0 0 0-1.7-2.7 17.2 17.2 0 0 1-1.9-2.7 1.6 1.6 0 0 1-.1-1.4.6.6 0 0 1 .5-.5c.4-.4 1.7.1 2.2.3a17.6 17.6 0 0 1 3.4 1.7 6.1 6.1 0 0 0 1.6 1.2h.7c1.1.2 2.4.1 3.4.4a22.3 22.3 0 0 1 5 2.4 30.8 30.8 0 0 1 10.8 11.9c.4.8.6 1.5 1 2.4s1.6 3.4 2.4 5.1a22.8 22.8 0 0 0 2.5 4.6c.5.7 2.6 1.1 3.5 1.5a24.4 24.4 0 0 1 2.4 1l3.5 2.4c.6.4 2.3 1.3 2.4 2M848 292.8l-1.4.2h.1a11.3 11.3 0 0 0 1.1 1.4l.8 1.7h.1a1.9 1.9 0 0 0 .7-1.7 7.9 7.9 0 0 1-.4-.7 5 5 0 0 0-.9-.8"/><path class="cls-8" d="M886.3 361h.7v-3.5h-1.1l-.9 2.4-1-2.4h-1v3.5h.7v-2.7l1 2.7h.5l1-2.7v2.7zm-5.8 0h.8v-2.9h1v-.6h-2.8v.6h1v2.9z"/></g><path class="cls-9" d="M62.2 371.2c-1.8 0-2.4-1.1-2.4-2.7a14.3 14.3 0 0 1 .2-1.8c.4-2.8 1.4-4.4 3.8-4.4s2.4.7 2.4 2v.6h1.6v-.7c0-1.9-1.2-3.7-4-3.7s-5.5 2.1-6.1 6.2a10.6 10.6 0 0 0-.1 1.6c0 2.4 1 4.7 4.4 4.7a5.5 5.5 0 0 0 5.1-2.8l-1.5-1a3.6 3.6 0 0 1-3.3 2zm10.5-7.7c-3.1 0-4.5 1.6-4.9 4.8a8.3 8.3 0 0 0-.1 1.1c0 2 1 3.7 3.6 3.7s4.5-1.7 4.9-4.8a9.1 9.1 0 0 0 .1-1.1c0-2.1-1-3.6-3.6-3.6zm1.3 4.8c-.3 2.3-1.1 3-2.4 3s-1.6-.5-1.6-1.8a8.4 8.4 0 0 1 .1-1.2c.3-2.3 1-3 2.4-3s1.7.5 1.7 1.8a7.8 7.8 0 0 1-.1 1.2zm10.2-7.5l-.5 3.1a.5.5 0 0 0 .1.4 3.7 3.7 0 0 0-2-.6c-2.8 0-4.4 1.3-4.9 4.8a6.9 6.9 0 0 0-.1 1.1c0 2.6 1.5 3.5 3.5 3.5a3.4 3.4 0 0 0 2.4-.5l.2 1h1.6l1.9-12.9h-2.3zm-1.6 10.1a3.9 3.9 0 0 1-1.9.6 1.4 1.4 0 0 1-1.6-1.7 10.1 10.1 0 0 1 .1-1.3c.4-2.7 1.2-3.1 2.4-3.1a3.6 3.6 0 0 1 1.8.4l-.8 5.2zm8.7-7.3c-3.1 0-4.5 1.5-5 4.8a9.3 9.3 0 0 0-.1 1.2c0 2.3 1.2 3.6 3.7 3.6a4.5 4.5 0 0 0 4.3-2.3l-1.7-.7a2.5 2.5 0 0 1-2.3 1.2c-1.2 0-1.7-.3-1.7-1.4a1.6 1.6 0 0 1 .1-.5h6.1c.1-.9.2-1.5.2-2s-.6-3.8-3.4-3.8zm1.2 4.1h-3.8c.4-.9 1-2.2 2.3-2.2a1.4 1.4 0 0 1 1.5 1.6 2.6 2.6 0 0 1-.1.6zm8.7-4.3l.2-1.7h-4.8l-.2 1.7h1.2l-1.3 8.6h-1.2l-.2 1.7h4.7l.2-1.7h-1.2l1.3-8.6h1.2zm9.6 2.6l.6-1.7h-1.6l-1.2.2a4.7 4.7 0 0 0-2.4-.7c-2.4 0-4.5 1.2-4.5 3.8a2.8 2.8 0 0 0 .6 1.7 1.6 1.6 0 0 0-.9 1.3 1.3 1.3 0 0 0 .3.8 3.2 3.2 0 0 0-1.6 2.8c0 2.3 2.4 2.8 4.2 2.8s5-.5 5-3.4c0-1-.6-1.8-2.4-2.1l-3.2-.6c-.4-.1-.5-.2-.5-.4a.4.4 0 0 1 .4-.4h.2l1.5.2c2.3 0 4.4-1 4.4-3.6a2.4 2.4 0 0 0-.2-1l.8.4h.6zm-4.6 7c.6.1.9.4.9.8s-1.5 1.5-2.5 1.5-2.2-.4-2.2-1.2a2.1 2.1 0 0 1 .7-1.6zm-.7-4.4c-1 0-1.5-.4-1.5-1.2a1.8 1.8 0 0 1 2-2c1 0 1.5.4 1.5 1.2a1.8 1.8 0 0 1-2 1.9zm11.3-4.9a4.6 4.6 0 0 0-2.8 1.3l-.2-.6H112l-1.3 9.4h2.2l1-7.2a5 5 0 0 1 2.2-1 1 1 0 0 1 1.1 1.2 8.9 8.9 0 0 1-.1.9l-.8 6h2.2l.8-6.1c0-.3.1-.8.1-1s-.8-3-2.6-3zm6.9 7.7v-.4l1-6.8H121l-.2 1.7h1.6a.3.3 0 0 0-.2.3l-.7 4.6a7.9 7.9 0 0 0 0 .9 1.8 1.8 0 0 0 1.9 2h1.1l.3-1.7h-.8a.6.6 0 0 1-.3-.6zm1.4-10.5h-2.2a1 1 0 0 1-.2-.3l-.3 2.4c0 .2 0 .5.1.5h2.2a1.3 1.3 0 0 0 .2-.7l.3-1.9c0-.2 0 0-.1 0zm4.6 10.6a.7.7 0 0 1-.8-.7l.7-4.6h2.6l.8-1.7h-3.1l.5-3.8-2.4.8-.4 3h-1.4l-.2 1.7h1.6c-.2.9-.3.3-.3.5l-.6 4.1a2.5 2.5 0 0 0 0 .5c0 1.6 1.2 2.2 2.6 2.2a4.8 4.8 0 0 0 3.2-1.1l-1-1.3a2.7 2.7 0 0 1-1.6.5zm8.2-7.8c-3.1 0-4.5 1.5-5 4.8a9.4 9.4 0 0 0-.1 1.2c0 2.3 1.2 3.6 3.7 3.6a4.5 4.5 0 0 0 4.3-2.3l-1.7-.7a2.5 2.5 0 0 1-2.3 1.2c-1.2 0-1.7-.3-1.7-1.4a1.6 1.6 0 0 1 .1-.5h6.1c.1-.9.2-1.5.2-2s-.6-3.8-3.4-3.8zm1.2 4.1h-3.7c.4-.9 1-2.2 2.3-2.2a1.4 1.4 0 0 1 1.5 1.6 2.6 2.6 0 0 1-.1.6zm8.5-4.1a3.5 3.5 0 0 0-2.3 1.2v-.5h-1.8l-1.3 9.4h2.3l1-7.3a3.9 3.9 0 0 1 1.9-.7h1.2l.3-1.9-1-.2zM90.4 354c-5.1-2.2-9.8-7.8-9.9-13.5s3.9-11.5 8.9-15c-.6 2.2-.9 4.3.6 6.3a5.9 5.9 0 0 0 6 2.3c5.3-1.2 5.5-6.9 2.4-10.3s-6.1-7.1-4.9-11.9a12.4 12.4 0 0 1 4-6.3c-1.4 3.8 2.7 7.6 5.4 9.4 4.7 3.2 9.9 5.7 14.2 9.5s7.9 9.4 7.2 15.7-6.2 11.4-12.3 13.8c12.8-2.8 26-12.8 26.3-27 .2-11.7-7.8-20.7-17.7-25.8l-.5-.3a4.2 4.2 0 0 1 .4 1.7 6 6 0 0 0 .2-1.1 5.6 5.6 0 0 1-.2 1.4v-.2a5.8 5.8 0 0 1-.7 1.8v-.2a6.2 6.2 0 0 1-10 .6c-4.3-5.5.1-11.4.7-17.2s-3.8-14.3-9.4-18.5c3.1 5-1 11.7-4.3 15.4s-7 6.6-10.6 9.9a88 88 0 0 0-10.5 11.4c-6.2 8.3-10 18.7-7.2 29s11.8 16.8 21.9 19.1z"/><g class="cls-10"><path class="cls-11" d="M384.3 307.1h1v19.8h-1v-19.8zm15.9-.5a10.4 10.4 0 1 0 10.5 10.4 10.2 10.2 0 0 0-10.4-10.4zm0 19.8a9.4 9.4 0 1 1 9.4-9.4 9.2 9.2 0 0 1-9.4 9.4zm30.2-17.8a9.9 9.9 0 0 0-6.3-2c-3.1 0-6.6 1.5-7.9 4.3h-.1v-3.8h-1v19.8h1v-11.4c0-5 3.1-7.9 8-7.9a7.9 7.9 0 0 1 5.6 1.9c1.5 1.3 2.4 3.6 2.4 7V327h1v-10.6c.3-3.5-.7-6.2-2.6-7.8zm8.7-1.5h1v19.8h-1v-19.8zm15.9 19.3a9.2 9.2 0 0 1-9.4-9.4 9.4 9.4 0 0 1 2.7-6.8 9.1 9.1 0 0 1 6.7-2.7 9 9 0 0 1 8.7 5.9h1.3a10.4 10.4 0 1 0-9.9 13.9 10.1 10.1 0 0 0 9.8-6.7h-1.2a9 9 0 0 1-8.6 5.8z"/><circle class="cls-11" cx="384.8" cy="300.9" r="1.1"/><circle class="cls-11" cx="439.7" cy="300.9" r="1.1"/><circle class="cls-11" cx="345.1" cy="313.6" r="10.3"/><path class="cls-11" d="M366.2 296a3.6 3.6 0 0 0-5.9-2.7 25.4 25.4 0 1 0 5 5 3.5 3.5 0 0 0 .9-2.3zm-21.1 42a24.5 24.5 0 1 1 14.6-44 3.6 3.6 0 0 0 5 5 24.5 24.5 0 0 1-19.6 39.1z"/></g><g class="cls-12"><path class="cls-13" d="M1110.4 388.2a2.3 2.3 0 0 1-1.2-.3l-3.7-2.2c-.5-.3-.3-.4-.1-.5l1.7-.8h.3l2.8 1.7h.3l11-6.4a.3.3 0 0 0 .2-.3v-12.5a.4.4 0 0 0-.2-.3l-11-6.3h-.3l-11 6.3a.4.4 0 0 0-.2.3v12.7a.3.3 0 0 0 .2.3l3 1.7c1.6.8 2.6-.1 2.6-1.1v-12.6a.3.3 0 0 1 .3-.3h1.4a.3.3 0 0 1 .3.3v12.5c0 2.2-1.2 3.4-3.3 3.4a4.7 4.7 0 0 1-2.5-.7l-2.9-1.7a2.3 2.3 0 0 1-1.2-2v-12.5a2.3 2.3 0 0 1 1.2-2l11-6.4a2.4 2.4 0 0 1 2.3 0l11 6.4a2.3 2.3 0 0 1 1.2 2v12.7a2.3 2.3 0 0 1-1.2 2l-11 6.4a2.3 2.3 0 0 1-1 .2z"/><path class="cls-13" d="M1113.8 379.5c-4.8 0-5.8-2.2-5.8-4.1a.3.3 0 0 1 .3-.3h1.4a.3.3 0 0 1 .3.3c.2 1.4.9 2.2 3.8 2.2s3.3-.5 3.3-1.8-.3-1.2-3.9-1.6-4.9-1-4.9-3.4 1.9-3.5 5-3.5 5.3 1.2 5.5 3.8a.3.3 0 0 1-.1.2h-1.7a.3.3 0 0 1-.3-.2c-.3-1.5-1.2-2-3.4-2s-2.8.9-2.8 1.5.3 1 3.8 1.5 5 1.1 5 3.5-2 3.9-5.5 3.9zM1129.7 366.2a2.1 2.1 0 1 1-2.1-2.1 2.1 2.1 0 0 1 2.1 2.1zm-3.9 0a1.8 1.8 0 1 0 1.8-1.8 1.8 1.8 0 0 0-1.8 1.8zm1-1.2h.8a.7.7 0 0 1 .8.6.5.5 0 0 1-.4.6c.3 0 .3.2.4.5a2.3 2.3 0 0 0 .1.6h-.5v-.8a.2.2 0 0 0-.2-.2h-.4v1h-.5V365zm.4 1h.4a.3.3 0 0 0 .4-.3.3.3 0 0 0-.3-.3h-.4v.6z"/><path class="cls-14" d="M1076.4 338.5a1.4 1.4 0 0 0-.7-1.2l-11.7-6.7-.6-.2h-.1l-.6.2-11.7 6.7a1.4 1.4 0 0 0-.7 1.2v18.1a.7.7 0 0 0 .4.6.7.7 0 0 0 .7 0l6.9-4a1.4 1.4 0 0 0 .7-1.2v-8.4a1.4 1.4 0 0 1 .7-1.2l3-1.7.7-.2.7.2 3 1.7a1.4 1.4 0 0 1 .7 1.2v8.4a1.4 1.4 0 0 0 .7 1.2l6.9 4a.7.7 0 0 0 .7 0 .7.7 0 0 0 .4-.6v-18.1zM1132.5 313.7a.7.7 0 0 0-1 .6v17.9a.5.5 0 0 1-.2.4h-.5l-2.9-1.7a1.4 1.4 0 0 0-1.4 0l-11.7 6.7a1.4 1.4 0 0 0-.7 1.2v13.5a1.4 1.4 0 0 0 .7 1.2l11.7 6.7a1.4 1.4 0 0 0 1.4 0l11.7-6.7a1.4 1.4 0 0 0 .7-1.2v-33.5a1.4 1.4 0 0 0-.7-1.2zm-1.1 34.3a.4.4 0 0 1-.2.3l-4 2.3h-.4l-4-2.3a.4.4 0 0 1-.2-.3v-4.6a.4.4 0 0 1 .2-.3l4-2.3h.4l4 2.3a.4.4 0 0 1 .2.3v4.6zM1171.4 343.2a1.4 1.4 0 0 0 .7-1.2v-3.3a1.4 1.4 0 0 0-.7-1.2l-11.6-6.7a1.4 1.4 0 0 0-1.4 0l-11.7 6.7a1.4 1.4 0 0 0-.7 1.2v13.5a1.4 1.4 0 0 0 .7 1.2l11.6 6.6a1.4 1.4 0 0 0 1.4 0l7-3.9a.7.7 0 0 0 0-1.2l-11.7-6.7a.7.7 0 0 1-.4-.6v-4.2a.7.7 0 0 1 .4-.6l3.7-2.1a.7.7 0 0 1 .7 0l3.7 2.1a.7.7 0 0 1 .4.6v3.3a.7.7 0 0 0 1.1.6z"/><path class="cls-15" d="M1158.9 342.6h.3l2.2 1.3v3.1l-2.2 1.3h-.3l-2.2-1.3v-3.1z"/><path id="_Clipping_Path_2" data-name="&amp;lt;Clipping Path&amp;gt;" class="cls-16" d="M1095.9 330.8a1.4 1.4 0 0 0-1.4 0l-11.6 6.7a1.4 1.4 0 0 0-.7 1.2v13.4a1.4 1.4 0 0 0 .7 1.2l11.6 6.7a1.4 1.4 0 0 0 1.4 0l11.6-6.7a1.4 1.4 0 0 0 .7-1.2v-13.4a1.4 1.4 0 0 0-.7-1.2z"/><g class="cls-17"><path class="cls-18" d="M1094.5 330.8l-11.2 6.7a1.2 1.2 0 0 0-.3 1.2v13.4a1.3 1.3 0 0 0-.1.9l12.8-22.4a2.1 2.1 0 0 0-1.2.2zM1095.6 360.2h.3l11.5-6.7a1.3 1.3 0 0 0 .6-1.2v-13.6a1.3 1.3 0 0 0-.3-1z"/><path class="cls-19" d="M1107.5 337.5l-11.6-6.7h-.4l-13.1 22.2.4.3 11.7 6.7a1.4 1.4 0 0 0 1.1.1l12.3-22.4z"/><path class="cls-18" d="M1108 352.2v-13.5a1.3 1.3 0 0 0-.6-1.2l-11.6-6.7-.4-.2 12.7 21.8a1.4 1.4 0 0 0-.1-.2zM1083.3 337.5a1.2 1.2 0 0 0-.3 1.2v13.4a1.2 1.2 0 0 0 .3 1.2l11.4 6.7a1.1 1.1 0 0 0 .8.2l-12.3-22.8h.1z"/><path class="cls-20" d="M1094.1 328.4l-.2.1h.2v-.1z"/><path class="cls-21" d="M1107.5 353.4a1.5 1.5 0 0 0 .7-.9l-12.8-21.8a1.4 1.4 0 0 0-1 .2l-11.6 6.7 12.5 22.8.5-.2z"/><path class="cls-22" d="M1108.6 353.2l-.1-.2v.2h.1z"/><path class="cls-23" d="M1107.5 353.4l-11.6 6.7-.5.2v.4l12.6-7.5v-.7a1.2 1.2 0 0 1-.5.9z"/><path class="cls-24" d="M1107.5 353.4l-11.6 6.7-.5.2v.4l12.6-7.5v-.7a1.2 1.2 0 0 1-.5.9z"/></g></g><g class="cls-12"><path class="cls-25" d="M210.2 470.2h58.1v56.5h-58.1v-56.5z"/><path class="cls-26" d="M210.2 470.2h58.1v56.5h-58.1v-56.5zm-2.6 59.2H271v-61.9h-63.5v61.8zm42.7-36.5c-2.1 0-2.8 1.1-2.8 1.9s.5 1.6 3.3 3.1 5.4 3.9 5.4 6.8-3.2 6.5-7.6 6.5a11.5 11.5 0 0 1-5.4-1.1.4.4 0 0 1-.2-.4v-3.9c0-.3.1-.3.3-.2a9.8 9.8 0 0 0 5.3 1.6c2.1 0 3-.9 3-2.1s-.6-1.8-3.3-3.2-5.3-3.6-5.3-6.7 2.7-6.2 7.3-6.2a12.1 12.1 0 0 1 4.7.7.6.6 0 0 1 .3.5v3.6a.3.3 0 0 1-.4.3 8.9 8.9 0 0 0-4.6-1.2zm-22.8 3.1h2.1c3.1 0 6-1.1 6-5.3s-2.1-5-5.6-5h-2.5V496zm-4.7-14a.6.6 0 0 1 .6-.3h6.8c7.3 0 10.2 4 10.2 9.1 0 6.7-4.9 9.6-10.8 9.6h-2.1v10.1a.3.3 0 0 1-.3.3h-4a.3.3 0 0 1-.3-.3V482z"/></g><path class="cls-27" d="M716.5 91.8V75.6h20.2v-.9h-20.2V59.9H738V59h-22.5v33.7h22.6v-.9h-21.6zm39.9-23.4l-8.4 11-8.2-11h-1.2l8.8 11.7-9.7 12.6h1.1l9.1-11.9 9.2 11.9h1.2l-9.7-12.6 8.9-11.7h-1.1zm4.8 32.6V85.9h.1a9.7 9.7 0 0 0 3.4 5.3 9.9 9.9 0 0 0 6.4 2 9.2 9.2 0 0 0 7.7-3.8 12.9 12.9 0 0 0 2-4.1 18 18 0 0 0 0-9.9 12.1 12.1 0 0 0-2.1-4 9.5 9.5 0 0 0-3.3-2.6 9.6 9.6 0 0 0-4.3-.9 10.5 10.5 0 0 0-3.4.5 9.2 9.2 0 0 0-2.8 1.5 10.4 10.4 0 0 0-2.1 2.3 10.8 10.8 0 0 0-1.4 3h-.1v-6.8h-.9V101h.9zm9.8-8.7a9.1 9.1 0 0 1-7.1-3q-2.7-3-2.7-8.8a15 15 0 0 1 .7-4.5 11.6 11.6 0 0 1 1.9-3.7 9.2 9.2 0 0 1 3.1-2.6 9 9 0 0 1 4.2-.9 8.7 8.7 0 0 1 4.1.9 8.4 8.4 0 0 1 2.9 2.6 12 12 0 0 1 1.7 3.7 16.5 16.5 0 0 1 .6 4.5 16.8 16.8 0 0 1-.5 4.2 12.1 12.1 0 0 1-1.7 3.8 9.1 9.1 0 0 1-2.9 2.7 8.2 8.2 0 0 1-4.3 1.1zm15.6.4V79a13.4 13.4 0 0 1 .6-3.9 9.5 9.5 0 0 1 1.7-3.3 8.2 8.2 0 0 1 3-2.3 9.1 9.1 0 0 1 4.3-.7v-.9a11.7 11.7 0 0 0-3.8.5 9.2 9.2 0 0 0-2.8 1.4 7.2 7.2 0 0 0-1.9 2.1 9.4 9.4 0 0 0-1 2.6h-.1v-6h-.9v24.2h.9zm10.8-12h20.3a16.8 16.8 0 0 0-.5-4.8 12 12 0 0 0-1.9-4.1 9.6 9.6 0 0 0-3.4-2.9 10.3 10.3 0 0 0-4.9-1.1 9.9 9.9 0 0 0-7.4 3.3 12.6 12.6 0 0 0-2.4 4 15.1 15.1 0 0 0-.9 5.4 19.8 19.8 0 0 0 .6 5 11.8 11.8 0 0 0 1.9 4.1 8.5 8.5 0 0 0 3.3 2.7 10.9 10.9 0 0 0 4.8.9 10.6 10.6 0 0 0 7-2.3 9.7 9.7 0 0 0 3.4-6.6h-.9a9.1 9.1 0 0 1-3.1 6 9.9 9.9 0 0 1-6.4 2 9.8 9.8 0 0 1-4.4-.9 8 8 0 0 1-2.9-2.5 10.7 10.7 0 0 1-1.7-3.7 19.7 19.7 0 0 1-.6-4.6zm19.4-.9h-19.5a14.6 14.6 0 0 1 .9-4.6 11.4 11.4 0 0 1 2.1-3.5 8.8 8.8 0 0 1 3-2.2 9.1 9.1 0 0 1 3.7-.8 9.4 9.4 0 0 1 4.2.9 8.6 8.6 0 0 1 3 2.4 10.5 10.5 0 0 1 1.8 3.5 14.4 14.4 0 0 1 .6 4.2zm20.6-4.2h.9q0-4.1-2.4-5.9a10.2 10.2 0 0 0-6.4-1.8 11.3 11.3 0 0 0-3.8.6 7.7 7.7 0 0 0-2.6 1.5 5.3 5.3 0 0 0-1.4 2 5.7 5.7 0 0 0-.4 2.1 6.1 6.1 0 0 0 .7 3.2 4.7 4.7 0 0 0 2.2 1.8l2.4.9 3.1.8 3.1.8a11.1 11.1 0 0 1 2.7 1 5.8 5.8 0 0 1 1.9 1.6 4.3 4.3 0 0 1 .7 2.6 4.6 4.6 0 0 1-.7 2.6 5.9 5.9 0 0 1-1.9 1.8 8.3 8.3 0 0 1-2.5 1l-2.7.3q-4.3 0-6.6-1.9t-2.3-6h-.9q0 4.6 2.5 6.7t7.4 2.1a14.4 14.4 0 0 0 3.1-.4 8.7 8.7 0 0 0 2.8-1.2 6.4 6.4 0 0 0 2-2.1 5.9 5.9 0 0 0 .8-3.1 5.3 5.3 0 0 0-.7-2.8 5.8 5.8 0 0 0-1.8-1.8 9.5 9.5 0 0 0-2.5-1.1l-2.8-.8-3.5-.9-2.8-.9a4.7 4.7 0 0 1-2-1.5 4.5 4.5 0 0 1-.7-2.8 6.5 6.5 0 0 1 .2-1.2 4.2 4.2 0 0 1 .9-1.7 6 6 0 0 1 2.2-1.6 9.7 9.7 0 0 1 4-.7 12.6 12.6 0 0 1 3.2.4 6.6 6.6 0 0 1 2.5 1.2 5.5 5.5 0 0 1 1.6 2.1 7.7 7.7 0 0 1 .6 3.1zm21.9 0h.9q0-4.1-2.4-5.9a10.2 10.2 0 0 0-6.4-1.8 11.3 11.3 0 0 0-3.8.6A7.7 7.7 0 0 0 845 70a5.3 5.3 0 0 0-1.4 2 5.7 5.7 0 0 0-.4 2.1 6.1 6.1 0 0 0 .7 3.2A4.7 4.7 0 0 0 846 79l2.4.9 3.1.8 3.1.8a11.1 11.1 0 0 1 2.7 1 5.8 5.8 0 0 1 1.9 1.6 4.3 4.3 0 0 1 .7 2.6 4.6 4.6 0 0 1-.7 2.6 5.9 5.9 0 0 1-1.9 1.8 8.3 8.3 0 0 1-2.5 1l-2.7.3q-4.3 0-6.6-1.9t-2.3-6h-.9q0 4.6 2.5 6.7t7.4 2.1a14.4 14.4 0 0 0 3.1-.4 8.7 8.7 0 0 0 2.8-1.2 6.4 6.4 0 0 0 2-2.1 5.9 5.9 0 0 0 .8-3.1 5.2 5.2 0 0 0-.7-2.8 5.7 5.7 0 0 0-1.8-1.8 9.5 9.5 0 0 0-2.5-1.1L853 80l-3.5-.9-2.8-.9a4.7 4.7 0 0 1-2-1.5 4.5 4.5 0 0 1-.7-2.7 6.5 6.5 0 0 1 .2-1.2 4.2 4.2 0 0 1 .9-1.7 6.1 6.1 0 0 1 2.2-1.6 9.7 9.7 0 0 1 4-.7 12.6 12.6 0 0 1 3.2.4 6.6 6.6 0 0 1 2.5 1.2 5.5 5.5 0 0 1 1.6 2.1 7.7 7.7 0 0 1 .6 3.1z"/><g class="cls-28"><path class="cls-29" d="M286.6 124.5a.8.8 0 0 0-.4.6c0 1.4-.1 5.1-.1 7.7a.3.3 0 0 0 .2.2h2.9a7.5 7.5 0 0 0 2.9-.4 3.7 3.7 0 0 0 1.9-3.5c0-3.4-2.4-4.7-5.9-4.7h-1.5zm9.1 15.7c0-3.5-2.6-5.4-7.2-5.4h-2a.3.3 0 0 0-.2.2c0 2.5 0 6.5.1 8a2.7 2.7 0 0 0 1.2 1.9 8 8 0 0 0 3.1.4c2.8 0 5.2-1.5 5.2-5.2zm-16.2-17.6h11.2c3.1 0 7.3 1.1 7.3 5.7a5.5 5.5 0 0 1-3.7 4.9c-.1 0-.1.1 0 .1 3 .7 5.6 2.6 5.6 6s-2.1 5.5-5.2 6.9a16.8 16.8 0 0 1-6.5 1.1c-1.8 0-6.6-.2-9.3-.1-.3-.1.2-1.4.5-1.6a6.6 6.6 0 0 0 1.8-.3c.9-.2 1.1-.5 1.2-2s.1-5.6.1-8.7v-8.5a1.4 1.4 0 0 0-1.2-1.7l-2.4-.4a2.5 2.5 0 0 1 .6-1.5zm-20.3 21.9a7.1 7.1 0 0 0 4 .9 7.8 7.8 0 0 0 5.6-2c1.9-1.7 3.2-4.3 3.2-8.4s-1.5-7.2-4.6-9.1a12.4 12.4 0 0 0-6.6-1.5 5.3 5.3 0 0 0-2 .2 1 1 0 0 0-.4.6c-.1.7-.1 6.1-.1 9.3s0 7.8.1 8.4a2.2 2.2 0 0 0 .8 1.7zm-8-21.9h12.4a13 13 0 0 1 8.6 2.7 11.4 11.4 0 0 1 3.9 9c0 5.3-2.4 8.4-4.9 10.1s-5.6 2.8-10.1 2.8h-10a1.9 1.9 0 0 1 .6-1.6l1.6-.3c.7-.3.9-.7 1-2s.1-5.3.1-8.6v-8.4a1.7 1.7 0 0 0-1.7-1.8l-2.2-.4a3.2 3.2 0 0 1 .7-1.5z"/><path class="cls-30" d="M208.6 145.8a7.1 7.1 0 0 1-2.3-.6 1.1 1.1 0 0 1-.3-.6c-.1-1.2-.1-4.7-.1-7.1a8.3 8.3 0 0 0-1.1-4.7 4.8 4.8 0 0 0-4.1-2.1c-1.5 0-3.6 1.1-5.3 2.5 0 0-.3.3-.3-.1s.1-1.2.1-1.7a.9.9 0 0 0-.2-.7 23.5 23.5 0 0 1-5.4 1.4c-.8.2-1.1 1-.2 1.3a7.8 7.8 0 0 1 2.1.9 1.1 1.1 0 0 1 .3 1c0 2.6 0 6.7-.1 8.9a1.1 1.1 0 0 1-.9 1.3h.1l-1.5.3a2.1 2.1 0 0 0 0 1.6h8.2a2.3 2.3 0 0 0 .2-1.6l-1.6-.2a1 1 0 0 1-.8-1.2c-.1-1.9-.1-5.8-.1-8.5a1.7 1.7 0 0 1 .4-1.3 5.3 5.3 0 0 1 3.3-1.2 3.6 3.6 0 0 1 2.4.8 3.5 3.5 0 0 1 1.1 2.2c.2 1.5.1 4.5.1 7.1s-.1 1.8-.6 1.9l-1.6.3a2.1 2.1 0 0 0 0 1.6h8.1a2.5 2.5 0 0 0 .1-1.5zm9.7-13.4c-1.9 0-3 1.4-3 3.7s1 4.9 3.9 4.9a2.7 2.7 0 0 0 1.8-.7 4.7 4.7 0 0 0 1.1-3.2c0-2.9-1.4-4.7-3.8-4.7zm-.2 15.5a3 3 0 0 0-1.5.4c-1.5.9-2.1 1.9-2.1 3a3.1 3.1 0 0 0 1.2 2.5 6.2 6.2 0 0 0 4.2 1.3c3.6 0 5.2-1.9 5.2-3.8a2.7 2.7 0 0 0-2-2.7 14.2 14.2 0 0 0-4.9-.6zm.2 9.1a7.8 7.8 0 0 1-5-1.5 4.6 4.6 0 0 1-1.9-3.5 2.7 2.7 0 0 1 .7-1.8 18.6 18.6 0 0 1 3.2-2.6h.1v-.2a3.3 3.3 0 0 1-2.3-2.2.5.5 0 0 1 .2-.6l1-.6 1.6-1.1a.3.3 0 0 0 .1-.2v-.2c-2.5-.8-3.7-2.6-3.7-5.4a5.3 5.3 0 0 1 2.2-4.4 10.3 10.3 0 0 1 5.1-1.7h.1a10.8 10.8 0 0 1 3.9.8 6.5 6.5 0 0 0 2.3.4 3 3 0 0 0 2.5-.9 1.9 1.9 0 0 1 .1.7 2.7 2.7 0 0 1-.5 1.6 2 2 0 0 1-1.5.7h-1.2a.3.3 0 0 0 0 .2 13 13 0 0 1 .2 1.5 5.7 5.7 0 0 1-2.5 5 8.1 8.1 0 0 1-4.1 1.6h-1a1.3 1.3 0 0 0-1 1c0 .5.3 1.2 1.8 1.3h1a30.8 30.8 0 0 1 5.7.7 3.9 3.9 0 0 1 2.6 3.8c0 2.6-1.9 5-5 6.5a11.3 11.3 0 0 1-4.7 1zm20-24.5a3.3 3.3 0 0 0-1.9.5c-1.4.8-2.1 2.5-2.1 5 0 4.6 2.3 7.8 5.6 7.8a3.6 3.6 0 0 0 2.4-.8c1-.8 1.5-2.5 1.5-4.9 0-4.6-2.3-7.6-5.6-7.6zm.6 15c-6 0-8.1-4.4-8.1-8.5a7.6 7.6 0 0 1 3.5-6.7 10.6 10.6 0 0 1 5.4-1.6c4.6 0 7.8 3.3 7.8 8a8.2 8.2 0 0 1-3.7 7.3 9.7 9.7 0 0 1-4.8 1.5zm-62.7-15a3.3 3.3 0 0 0-1.9.5c-1.4.8-2.1 2.5-2.1 5 0 4.6 2.3 7.8 5.6 7.8a3.6 3.6 0 0 0 2.4-.8c1-.8 1.5-2.5 1.5-4.9 0-4.6-2.3-7.6-5.6-7.6zm.6 15c-6 0-8.1-4.4-8.1-8.5a7.6 7.6 0 0 1 3.5-6.7 10.6 10.6 0 0 1 5.4-1.6c4.6 0 7.8 3.3 7.8 8a8.2 8.2 0 0 1-3.7 7.3 9.5 9.5 0 0 1-4.8 1.5zm-40.2-.4a1.5 1.5 0 0 1-.1-.8 1.2 1.2 0 0 1 .1-.5l1.5-.3a1.3 1.3 0 0 0 1-1.4c.1-2.1.1-6.1.1-8.9a1.1 1.1 0 0 0-.4-1 7.9 7.9 0 0 0-2.1-.9.5.5 0 0 1-.5-.5.7.7 0 0 1 .7-.5 25.7 25.7 0 0 0 5.4-1.4.9.9 0 0 1 .2.6v.4c0 .4-.1.8-.1 1.3a.3.3 0 0 0 .3.2h.2a9.9 9.9 0 0 1 5.3-2.4 4.6 4.6 0 0 1 4.1 2.5h.7c2.1-1.6 4.1-2.5 5.5-2.5 3.3 0 5.2 2.4 5.2 6.5v7.2a1.1 1.1 0 0 0 .6.8 7.5 7.5 0 0 0 2 .5 2.8 2.8 0 0 1-.2 1.3h-7.9a3.4 3.4 0 0 1 0-1.3l1.3-.3c.7-.2.9-.5.9-1.4s.1-6.4-.1-7.7a3.5 3.5 0 0 0-3.6-3.1 6.2 6.2 0 0 0-3.6 1.4.6.6 0 0 0-.1.4 16.2 16.2 0 0 1 .1 2.9v6.5a1 1 0 0 0 .8 1.1h.5l1.1.2a1.9 1.9 0 0 1 0 1 .7.7 0 0 1-.1.4h-8a1.9 1.9 0 0 1-.1-.7 1.1 1.1 0 0 1 .1-.6h.6l1.1-.2a1.1 1.1 0 0 0 .8-1.3 61 61 0 0 0 0-8.1c-.4-2-1.6-3.1-3.4-3.1a6.5 6.5 0 0 0-3.6 1.4 1.1 1.1 0 0 0-.3.8v9.2a1.1 1.1 0 0 0 1 1.1h1.4a2.9 2.9 0 0 1-.1 1.3h-8.1z"/><path class="cls-6" d="M118.3 155.7l-1.4-.5s.2-7.3-2.5-7.9c-1.8-2 .3-86.5 6.6-.3 0 0-2.2 1.1-2.6 3a27.1 27.1 0 0 0-.1 5.7z"/><path class="cls-31" d="M118.3 155.7l-1.4-.5s.2-7.3-2.5-7.9c-1.8-2 .3-86.5 6.6-.3 0 0-2.2 1.1-2.6 3a27.1 27.1 0 0 0-.1 5.7z"/><path class="cls-6" d="M119.1 148.6s12.6-8.3 9.7-25.6c-2.8-12.6-9.6-16.7-10.3-18.2a17.7 17.7 0 0 1-1.6-3.1l.5 34.9s-1.1 10.7 1.7 12"/><path class="cls-32" d="M119.1 148.6s12.6-8.3 9.7-25.6c-2.8-12.6-9.6-16.7-10.3-18.2a17.7 17.7 0 0 1-1.6-3.1l.5 34.9s-1.1 10.7 1.7 12"/><path class="cls-6" d="M116.1 149.1s-11.8-8.1-11.1-22.4 9-21.2 10.7-22.5a3.3 3.3 0 0 0 1.2-2.7c.7 1.6.6 23.7.7 26.3.2 10-.6 19.4-1.5 21.3z"/><path class="cls-33" d="M116.1 149.1s-11.8-8.1-11.1-22.4 9-21.2 10.7-22.5a3.3 3.3 0 0 0 1.2-2.7c.7 1.6.6 23.7.7 26.3.2 10-.6 19.4-1.5 21.3z"/></g><g class="cls-12"><path class="cls-34" d="M505.1 89.5a5 5 0 0 1 5 5V116a5 5 0 0 1-10 0V94.6a5 5 0 0 1 5-5z"/><path class="cls-34" d="M493.6 63.7v33.2a6.3 6.3 0 0 0 6.2 6.3H533a6.3 6.3 0 0 0 6.2-6.3V64.2v-.6h-45.6z"/><path class="cls-34" d="M527.7 89.5a5 5 0 0 1 5 5V116a5 5 0 0 1-10 0V94.6a5 5 0 0 1 5-5zm-42.2-23a5 5 0 0 1 5 5v21.6a5 5 0 1 1-10 0V71.6a5 5 0 0 1 5-5zm61.7 0a5 5 0 0 1 5 5v21.6a5 5 0 0 1-10 0V71.6a5 5 0 0 1 5-5zm-53.5-5c.1-10 8.9-18.2 20.1-19.3h5c11.2 1.1 20 9.3 20.1 19.3h-45.1z"/><path class="cls-35" d="M495.5 41.3l5.3 9.2m36.5-9.2l-5.3 9.1"/><path class="cls-6" d="M509.6 52.6a2.6 2.6 0 0 1-5.2 0 2.6 2.6 0 0 1 5.2 0zm19.4 0a2.6 2.6 0 0 1-5.2 0 2.6 2.6 0 0 1 5.2 0z"/></g><path class="cls-36" d="M605.7 228.7a1.1 1.1 0 1 1-2.2 0 1.1 1.1 0 0 1 1.1-1.2 1.1 1.1 0 0 1 1.1 1.2zm-1.7 35.7v-27.3h1.1v27.3H604zm38.4-19.5c0 13.8-7.6 20-16 20s-15.5-6.8-15.5-19.5 7.2-20 16.1-20 15.4 7 15.4 19.5zm-30.4.3c0 10.4 5.1 18.6 14.4 18.6s14.8-8.4 14.8-18.7-4.3-18.3-14.2-18.3-15 8.2-15 18.4zm34.5 16.2a15.8 15.8 0 0 0 7.9 2.5c5.3 0 10-3.7 10-9.2s-3.1-7.7-8.5-10-9-4.2-9-9.6 4.4-9.6 10.5-9.6a12.6 12.6 0 0 1 6.8 1.7l-.5 1a13 13 0 0 0-6.4-1.6c-6.4 0-9.2 4.8-9.2 8.4s3.8 6.5 8.7 8.9 8.7 5.2 8.7 10.6-4.1 10.4-11.4 10.4a15.2 15.2 0 0 1-8.2-2.3l.5-1.1z"/><g class="cls-12"><path class="cls-37" d="M1074.6 136.5l1.7-3.6h.2l1.7 3.6a.1.1 0 0 1-.1.1h-.6l-.3-.6h-1.6l-.3.6h-.6a.1.1 0 0 1-.1-.1zm2.3-1.1l-.5-1.2-.5 1.2h1.1zM1079.2 133h1.4a1.2 1.2 0 1 1 0 2.4h-.7v1.3h-.7V133zm1.3 1.6a.6.6 0 0 0 .6-.6.5.5 0 0 0-.6-.5h-.6v1.1h.6zM1082.2 136.5l1.7-3.6h.2l1.7 3.6a.1.1 0 0 1-.1.1h-.6l-.3-.6h-1.6l-.3.6h-.6a.1.1 0 0 1-.1-.1zm2.3-1.1l-.5-1.2-.5 1.2h1.1zM1088.4 132.9a1.8 1.8 0 0 1 1.3.5.1.1 0 0 1 0 .2l-.3.3h-.1a1.3 1.3 0 0 0-.8-.3 1.2 1.2 0 0 0 0 2.5 1.3 1.3 0 0 0 .8-.3h.1l.3.3a.1.1 0 0 1 0 .1 1.8 1.8 0 0 1-1.3.5 1.9 1.9 0 1 1 0-3.8zM1091 133h.7v1.4h1.7V133h.7v3.5h-.7V135h-1.7v1.5h-.7V133zM1095.6 133h2.4v.4h-1.7v.9h1.4v.7h-1.4v1h1.7v.4h-2.4V133z"/><path class="cls-38" d="M1205.6 141.1h-2a.2.2 0 0 0-.2.2v.4a.2.2 0 0 0 .2.2h.6v2.5l.2.2h.4l.2-.2v-2.5h.6a.2.2 0 0 0 .2-.2v-.4a.2.2 0 0 0-.2-.2zM1210 144.3l-.5-3.1-.2-.2h-.3l-.9 2-.9-2h-.4l-.5 3.1v.2h.6l.2-.2.2-1.4.7 1.5h.4l.7-1.5.2 1.5h.7a.2.2 0 0 0 0 .1zM1088.2 154l-.6-.2-.6.2a5.5 5.5 0 0 1-3.5 1.3 5.3 5.3 0 0 1 0-10.6 5.4 5.4 0 0 1 3.5 1.3l.6.2a.8.8 0 0 0 .6-.3l1.5-1.5a.8.8 0 0 0 0-1.2 8.7 8.7 0 0 0-6.2-2.4 9.2 9.2 0 0 0-9.2 9.2 9.1 9.1 0 0 0 2.7 6.5 9.2 9.2 0 0 0 6.5 2.7 8.8 8.8 0 0 0 6.2-2.5.9.9 0 0 0 .3-.7.8.8 0 0 0-.2-.5zM1101 140.8a9.1 9.1 0 0 0-6.5 2.7 9.2 9.2 0 0 0-2.7 6.5 9.2 9.2 0 1 0 18.4 0 9.2 9.2 0 0 0-9.2-9.2zm0 14.5a5.3 5.3 0 0 1 0-10.5 5.3 5.3 0 0 1 5.3 5.3 5.2 5.2 0 0 1-5.3 5.2zM1128.7 146.7a5.7 5.7 0 0 0-5.7-5.7h-8a.8.8 0 0 0-.8.8V158a.8.8 0 0 0 .8.8h2.3a.9.9 0 0 0 .8-.8v-5.9h2.9l3.3 6.3a.8.8 0 0 0 .7.4h2.6a.8.8 0 0 0 .7-.4.9.9 0 0 0 0-.9l-3.2-5.9a5.7 5.7 0 0 0 3.6-4.9zm-4 0a2.1 2.1 0 0 1-2 2.1h-4.6v-4.1h4.6a2 2 0 0 1 2 2.1zM1139.5 141.1h-5.8a.8.8 0 0 0-.8.8v16.2a.8.8 0 0 0 .8.8h5.8a9 9 0 1 0 0-17.8zm4.8 8.9a5 5 0 0 1-5.1 5.2h-2.4v-10.4h2.4a5 5 0 0 1 5.2 5.2zM1160.6 140.8a9.1 9.1 0 0 0-6.5 2.7 9.2 9.2 0 0 0-2.7 6.5 9.2 9.2 0 1 0 18.4 0 9.2 9.2 0 0 0-9.2-9.2zm0 14.5a5.3 5.3 0 0 1 0-10.5 5.3 5.3 0 0 1 5.3 5.3 5.2 5.2 0 0 1-5.3 5.2zM1187.7 141.4a.8.8 0 0 0-.7-.4h-2.5a.8.8 0 0 0-.8.5l-4.4 9.9-4.4-9.9a.8.8 0 0 0-.8-.5h-2.5a.8.8 0 0 0-.8 1.2l7.6 16.5a.8.8 0 0 0 .8.5h.2a.8.8 0 0 0 .8-.5l7.6-16.5a.8.8 0 0 0-.1-.8zM1202.7 157.8l-7.6-16.5a.8.8 0 0 0-.8-.5h-.2a.8.8 0 0 0-.8.5l-7.6 16.5a.8.8 0 0 0 .8 1.2h2.1a1.1 1.1 0 0 0 1.1-.7l1.1-2.4h6.8l1.1 2.4a1.1 1.1 0 0 0 1.1.7h2.1a.8.8 0 0 0 .8-1.2zm-6.6-5.4h-3.7l1.9-4.2z"/><path class="cls-39" d="M1065.6 163.8h-7.6l.5-6.4h-3.7l-.5 6.4h-15.7l-.5-6.4h-3.7l.5 6.4h-7.6l-4.3-27.7 10.7-17h25.6l10.7 17zm-8.5-36.2h-6.8l.5 3.2h-8.5l.5-3.2h-6.8l-4.3 8.5 2.1 17h25.6l2.1-17-4.3-8.5zm-3.7 19.9c-.6 0-1.1-1.8-1.1-4s.5-4 1.1-4 1.1 1.8 1.1 4-.6 4-1.2 4zm-13.4.3c-.6 0-1.1-1.8-1.1-4s.5-4 1.1-4 1.1 1.8 1.1 4-.6 4-1.2 4z"/></g><path class="cls-40" d="M525.8 487.8l3.9 50.3a1.9 1.9 0 0 0 1.3 1.6l20.7 6.6a1.9 1.9 0 0 0 1.1 0l20.7-6.6a1.9 1.9 0 0 0 1.3-1.6l3.9-50.3a1.9 1.9 0 0 0-1.9-2h-49.2a1.9 1.9 0 0 0-1.8 2zm42.9 15.6H543l.8 7.1h24.3l-1.6 20.3-14.3 4.5-14.2-4.5-.8-10.6h7.5v5.2l7.8 2.1 7.8-2.1.6-8.3h-24l-1.6-20.3h33.8z" id="Layer_2" data-name="Layer 2"/></g></svg>