<svg xmlns="http://www.w3.org/2000/svg" xmlns:xlink="http://www.w3.org/1999/xlink" viewBox="0 0 1000 1000"><defs><style>.a{fill:none}.b{fill:url(#a)}.c{fill:url(#b)}.d{fill:url(#c)}.e{fill:url(#d)}.f{fill:url(#e)}.g{fill:url(#f)}.h{fill:#00aeef}</style><linearGradient id="a" x1="817.23" y1="-4014.87" x2="366.26" y2="-4550.73" gradientTransform="matrix(1 0 0 -1 0 -3989.56)" gradientUnits="userSpaceOnUse"><stop offset="0" stop-color="#dcf0f5"/><stop offset=".47" stop-color="#30bbed"/><stop offset="1" stop-color="#3970b7"/></linearGradient><linearGradient id="b" x1="214.08" y1="-4601.32" x2="755.75" y2="-4427.69" gradientTransform="matrix(1 0 0 -1 0 -3989.56)" gradientUnits="userSpaceOnUse"><stop offset=".47" stop-color="#30bbed"/><stop offset="1" stop-color="#3970b7"/></linearGradient><linearGradient id="c" x1="412.16" y1="-4147.16" x2="614.74" y2="-4147.16" xlink:href="#a"/><linearGradient id="d" x1="60.01" y1="-5015.93" x2="492.81" y2="-3815.44" xlink:href="#a"/><linearGradient id="e" x1="11.97" y1="-4998.64" x2="444.79" y2="-3798.11" xlink:href="#a"/><linearGradient id="f" x1="21.48" y1="-5002.04" x2="454.29" y2="-3801.54" xlink:href="#a"/></defs><title>logo_gen</title><path class="a" d="M585.15 190.16a38 38 0 0 1 7 5.23 38.41 38.41 0 0 0-6.94-5.19zM491 540.73h.39-.39zM600.73 238.13a36.17 36.17 0 0 1-1.78 3.54c.62-1.16 1.19-2.34 1.78-3.54z"/><path class="b" d="M491.38 540.73A187.52 187.52 0 0 0 678.5 353.28v-.1a37.73 37.73 0 0 0-37.72-37.67H491a37.72 37.72 0 0 0 0 75.49h105.54a112.1 112.1 0 1 1-49.45-134.73c18 10.37 41.47 3.48 51.87-14.55a36.17 36.17 0 0 0 1.78-3.54C632 175.34 614.91 90.47 518.57 78.42A276.19 276.19 0 0 1 764.52 315c9.86 108.87-105.31 225.53-273.14 225.73z"/><path class="c" d="M686.28 548.52A275.33 275.33 0 0 1 491 629.43a275.29 275.29 0 0 1-195.3-80.91 44.35 44.35 0 0 1 62.71-62.71A186.83 186.83 0 0 0 491 540.73h.39c167.83-.19 283-116.85 273.14-225.73a275.73 275.73 0 0 1-78.25 233.52z"/><path class="d" d="M600.73 238.13a37.79 37.79 0 0 0-15.58-48h.05a38.41 38.41 0 0 1 6.94 5.19c-2.42-1.53-4.88-3-7.34-4.46s-5-2.85-7.61-4.18a186.47 186.47 0 0 0-86.2-21 44.34 44.34 0 1 1 0-88.68q13.8 0 27.57 1.37c96.35 12.1 113.44 96.97 82.17 159.76z"/><path class="e" d="M417.91 163.92a44.34 44.34 0 1 1-31.36-54.3 44.35 44.35 0 0 1 31.36 54.3z"/><path class="f" d="M299 270a33.83 33.83 0 1 1 23.93-41.42A33.84 33.84 0 0 1 299 270z"/><path class="g" d="M277.76 334.62a26.32 26.32 0 1 1-37.22 0 26.33 26.33 0 0 1 37.22 0z"/><path class="h" d="M142.78 865.43c-15.07 12.52-33.53 17.83-52.2 17.83-44.56 0-76.18-25.46-76.18-76 0-42.87 33.32-76.18 78.09-76.18 16.76 0 35.23 5.73 48.38 18.67 12.94 12.73-5.73 31.62-18.46 20.37-7.85-7.64-18.89-13.37-29.92-13.37-25.68 0-50.5 20.58-50.5 50.5 0 31.41 20.8 50.5 48.59 50.5 12.94 0 24-3.82 31.83-9.55v-26.1H90.58c-18.89 0-17-25.89 0-25.89H133c7.85 0 15.07 5.94 15.07 12.52V854c.01 3.79-1.68 7.4-5.29 11.43zM191.79 881.77a13 13 0 0 1-13.16-13.16V748.08a12.83 12.83 0 0 1 13.16-13.16H268c19.52 0 19.1 27.59 0 27.59h-61.14v31.83h53.48c18.89 0 18.89 27.8 0 27.8h-53.48V854h64.72c19.31 0 20.8 27.8 0 27.8h-79.79zM309.56 749.78c0-7.64 1.7-15.07 12.73-15.07 7.64 0 9.34 1.91 15.07 7.43L407.6 830v-82.34c0-7 6.15-14.64 13.37-14.64 7.64 0 15.07 7.64 15.07 14.64v119.47c0 9.34-5.73 12.94-11.25 14.64-7.43 0-11-1.7-17.19-7.43l-70.24-89.13v81.91c0 9.34-5.73 14.64-13.37 14.64s-14.43-5.31-14.43-14.64V749.78zM540.22 883.9c-39.26 1.7-80-24.4-80-76.39 0-52.2 40.74-77.88 80-77.88 37.14 1.91 76 27.59 76 77.88s-38.87 76.39-76 76.39zm-2.33-126.69c-23.77 0-49.66 16.76-49.66 50.29 0 33.32 25.89 50.29 49.66 50.29 24.4 0 50.5-17 50.5-50.29 0-33.5-26.1-50.29-50.51-50.29zM670.29 868c0 18.46-28.22 19.1-28.22.42V747.87a12.68 12.68 0 0 1 12.73-12.94h56.45c53.9 0 64.93 72.15 19.95 90.19l28.22 34.38c11 16.34-11 32-23.77 15.92l-32-45.84h-33.36V868zm0-62.81h41c27.59 0 29.28-44.56 0-44.56h-41v44.56zM782.54 881.77c-6.79-3.82-11-11.46-6.79-20.37l60.9-119c5.73-11.25 21-11.67 26.31 0l59.84 119c8.7 16.55-17 29.71-24.62 13.16l-9.34-18.67h-78.3l-9.12 18.67c-3.42 7.21-11.24 8.7-18.88 7.21zm91.25-53.9l-24-52.41-26.1 52.41h50.08zM944.06 768h-7v-27h-8.92v-5.8H953v5.8h-8.92v27zM971.94 768L964 742.26h-.2q.43 7.86.43 10.49V768H958v-32.81h9.48l7.77 25.12h.13l8.24-25.12h9.48V768h-6.49v-15.51-2.54q0-1.44.3-7.64h-.2L978.32 768h-6.38zM783.68 116.49h-7v-27h-8.88v-5.8h24.8v5.8h-8.92v27zM811.56 116.49l-7.91-25.77h-.2q.43 7.86.43 10.49v15.28h-6.22V83.64h9.48l7.77 25.12h.09l8.24-25.12h9.48v32.84h-6.49v-15.54-2.54q0-1.44.3-7.64h-.2l-8.47 25.72h-6.38z"/></svg>