<svg xmlns="http://www.w3.org/2000/svg" xmlns:xlink="http://www.w3.org/1999/xlink" viewBox="0 0 2186.31 567.04"><defs><style>.a{fill:none}.b{fill:url(#a)}.c{fill:url(#b)}.d{fill:url(#c)}.e{fill:url(#d)}.f{fill:url(#e)}.g{fill:url(#f)}.h{fill:#00aeef}</style><linearGradient id="a" x1="546.53" y1="-7108.07" x2="193.66" y2="-7527.36" gradientTransform="matrix(1 0 0 -1 0 -7080.52)" gradientUnits="userSpaceOnUse"><stop offset="0" stop-color="#dcf0f5"/><stop offset=".47" stop-color="#30bbed"/><stop offset="1" stop-color="#3970b7"/></linearGradient><linearGradient id="b" x1="74.58" y1="-7566.95" x2="498.42" y2="-7431.09" gradientTransform="matrix(1 0 0 -1 0 -7080.52)" gradientUnits="userSpaceOnUse"><stop offset=".47" stop-color="#30bbed"/><stop offset="1" stop-color="#3970b7"/></linearGradient><linearGradient id="c" x1="229.57" y1="-7211.58" x2="388.09" y2="-7211.58" xlink:href="#a"/><linearGradient id="d" x1="-45.98" y1="-7891.37" x2="292.68" y2="-6952.02" xlink:href="#a"/><linearGradient id="e" x1="-83.56" y1="-7877.84" x2="255.11" y2="-6938.46" xlink:href="#a"/><linearGradient id="f" x1="-76.13" y1="-7880.51" x2="262.54" y2="-6941.14" xlink:href="#a"/></defs><title>logo_gen_h</title><path class="a" d="M364.94 156.54a29.76 29.76 0 0 1 5.47 4.09 30.05 30.05 0 0 0-5.43-4.06zM291.26 430.85h.3-.3zM377.12 194.08a28.3 28.3 0 0 1-1.39 2.77c.49-.91.93-1.85 1.39-2.77z"/><path class="b" d="M291.56 430.85A146.73 146.73 0 0 0 438 284.18v-.08a29.52 29.52 0 0 0-29.52-29.48H291.26a29.51 29.51 0 0 0 0 59h82.58a87.72 87.72 0 1 1-38.69-105.42c14.1 8.12 32.45 2.72 40.58-11.38a28.3 28.3 0 0 0 1.39-2.77c24.44-49.13 11.1-115.55-64.29-125a216.12 216.12 0 0 1 192.46 185.17c7.71 85.19-82.41 176.48-213.73 176.63z"/><path class="c" d="M444.07 436.95a215.44 215.44 0 0 1-152.81 63.31 215.41 215.41 0 0 1-152.81-63.31 34.7 34.7 0 0 1 49.07-49.07 146.19 146.19 0 0 0 103.74 43h.3c131.32-.18 221.44-91.47 213.73-176.66a215.75 215.75 0 0 1-61.22 182.73z"/><path class="d" d="M377.12 194.08a29.57 29.57 0 0 0-12.19-37.54 30.05 30.05 0 0 1 5.43 4.06c-1.9-1.2-3.82-2.38-5.74-3.49s-3.95-2.23-6-3.27a145.91 145.91 0 0 0-67.45-16.44 34.69 34.69 0 1 1 0-69.39q10.8 0 21.57 1.07c75.48 9.45 88.82 75.87 64.38 125z"/><path class="e" d="M234.07 136a34.7 34.7 0 1 1-24.54-42.49A34.71 34.71 0 0 1 234.07 136z"/><path class="f" d="M141 219a26.47 26.47 0 1 1 18.72-32.41A26.48 26.48 0 0 1 141 219z"/><path class="g" d="M124.41 269.58a20.6 20.6 0 1 1-29.13 0 20.6 20.6 0 0 1 29.13 0z"/><path class="h" d="M852.57 408.34c-23.24 19.31-51.72 27.5-80.53 27.5-68.74 0-117.52-39.28-117.52-117.19 0-66.12 51.39-117.52 120.46-117.52 25.86 0 54.34 8.84 74.63 28.81 20 19.64-8.84 48.77-28.48 31.43C809 249.58 792 240.74 775 240.74c-39.61 0-77.91 31.75-77.91 77.91 0 48.45 32.08 77.91 75 77.91 20 0 37-5.89 49.1-14.73v-40.26H772c-29.13 0-26.19-39.94 0-39.94h65.47c12.11 0 23.24 9.17 23.24 19.31v69.72c.05 5.9-2.57 11.47-8.14 17.68zM928.2 433.55a20 20 0 0 1-20.3-20.3V227.32c0-11.78 8.84-20.3 20.3-20.3h117.52c30.12 0 29.46 42.56 0 42.56h-94.28v49.1h82.49c29.13 0 29.13 42.88 0 42.88h-82.49v49.1h99.84c29.79 0 32.08 42.88 0 42.88H928.2zM1109.87 229.94c0-11.78 2.62-23.24 19.64-23.24 11.78 0 14.4 2.95 23.24 11.46l108.35 135.52v-127c0-10.8 9.49-22.59 20.62-22.59 11.78 0 23.24 11.78 23.24 22.59V411c0 14.4-8.84 20-17.35 22.59-11.46 0-17-2.62-26.52-11.46l-108.33-137.52V411c0 14.4-8.84 22.59-20.62 22.59s-22.26-8.18-22.26-22.59V230zM1465.7 436.82c-60.56 2.62-123.41-37.64-123.41-117.84 0-80.53 62.85-120.14 123.41-120.14 57.3 2.95 117.19 42.56 117.19 120.16S1523 436.82 1465.7 436.82zm-3.6-195.43c-36.66 0-76.6 25.86-76.6 77.58 0 51.39 39.94 77.58 76.6 77.58 37.65 0 77.91-26.19 77.91-77.58-.01-51.71-40.26-77.57-77.91-77.57zM1666.37 412.27c0 28.48-43.54 29.46-43.54.65V227a19.57 19.57 0 0 1 19.64-20h87.07c83.15 0 100.17 111.3 30.77 139.12l43.54 53c17 25.21-17 49.43-36.66 24.55L1717.76 353h-51.39v59.25zm0-96.89h63.18c42.56 0 45.17-68.74 0-68.74h-63.18v68.74zM1839.54 433.55c-10.47-5.89-17-17.68-10.47-31.42L1923 218.48c8.84-17.35 32.41-18 40.59 0l92.31 183.64c13.42 25.53-26.19 45.83-38 20.29l-14.4-28.81h-120.75l-14.08 28.81c-5.23 11.14-17.35 13.43-29.13 11.14zm140.76-83.15l-37-80.85-40.3 80.85h77.25zM2075.94 227.55h-5.45v-21.16h-7v-4.54h19.41v4.54h-7v21.16zM2097.76 227.55l-6.19-20.16h-.16q.33 6.15.33 8.21v12h-4.87v-25.7h7.42l6.08 19.65h.11l6.45-19.65h7.42v25.7h-5.08v-12.21-2q0-1.14.24-6h-.16l-6.63 20.13h-5zM520.28 98.89h-5.45V77.73h-7v-4.54h19.41v4.54h-7v21.16zM542.09 98.89l-6.19-20.16h-.16q.33 6.15.33 8.21v12h-4.87V73.19h7.42l6.08 19.65h.11l6.45-19.65h7.42v25.7h-5.08V86.73v-2q0-1.14.24-6h-.16l-6.63 20.13h-5z"/></svg>