<svg xmlns="http://www.w3.org/2000/svg" width="300" height="300" viewBox="0 0 70 70"><defs><style>.cls-1{fill:#fff;fill-rule:evenodd}</style></defs><path id="mobile_n" class="cls-1" d="M36.3 13H20.7a2.371 2.371 0 0 0-2.364 2.364v30.271A2.372 2.372 0 0 0 20.7 48h15.6a2.371 2.371 0 0 0 2.364-2.364V15.364A2.371 2.371 0 0 0 36.3 13zM26 14.7h5a.286.286 0 0 1 0 .573h-5a.286.286 0 0 1 0-.573zm2.5 32.114a1.182 1.182 0 1 1 1.182-1.183 1.182 1.182 0 0 1-1.182 1.187zm8.522-3.193H19.979V16.749h17.043v26.876z" transform="translate(6.5 4.5)"/></svg>