<svg id="Layer_1" data-name="Layer 1" xmlns="http://www.w3.org/2000/svg" viewBox="0 0 300 300"><defs><style>.cls-1{fill:#ffc107}.cls-2{fill:#0288d1}</style></defs><title>mobileappdev</title><path class="cls-1" d="M233.6 57.7a17 17 0 0 0-13.5 24.2l14.9 29.3a.4.4 0 0 0 .8 0l14.7-28.9a17 17 0 0 0-16.9-24.6zm1.9 27.1a10.2 10.2 0 1 1 10.2-10.2 10.2 10.2 0 0 1-10.2 10.2z"/><path class="cls-2" d="M146.6 14H29.2A20.6 20.6 0 0 0 8.7 34.5v238.6a20.6 20.6 0 0 0 20.5 20.5h117.4a20.6 20.6 0 0 0 20.5-20.5V34.5A20.6 20.6 0 0 0 146.6 14zM18 51.2h139.8v177.2H18V51.2zm11.2-28h117.4a11.2 11.2 0 0 1 11.2 11.2v7.4H18v-7.3a11.2 11.2 0 0 1 11.2-11.2zm117.4 261.1H29.2A11.2 11.2 0 0 1 18 273.1v-35.4h139.8v35.4a11.2 11.2 0 0 1-11.2 11.2z"/><path class="cls-2" d="M87.9 242.4a18.6 18.6 0 1 0 18.7 18.6 18.7 18.7 0 0 0-18.7-18.6zm0 28a9.3 9.3 0 1 1 9.3-9.3 9.3 9.3 0 0 1-9.3 9.3zM69.3 37.3h18.6a4.7 4.7 0 1 0 0-9.3H69.3a4.7 4.7 0 0 0 0 9.3zM101.9 37.3h4.7a4.7 4.7 0 1 0 0-9.3h-4.7a4.7 4.7 0 1 0 0 9.3z"/><path class="cls-1" d="M213.6 2.6l18.7 14.8a5.9 5.9 0 0 0 6.3 0l18.8-14.8c1.5-1.2 1.2-2.2-.7-2.2h-42.4c-1.9.1-2.2 1.1-.7 2.2z"/><path class="cls-1" d="M258.7 6.6l-20.5 15.5a5 5 0 0 1-5.5 0L212.2 6.6c-1.5-1.2-2.8-.5-2.8 1.4v25.5a3.5 3.5 0 0 0 3.5 3.5H258a3.5 3.5 0 0 0 3.5-3.5V7.9c0-1.9-1.3-2.5-2.8-1.3z"/><path id="MobileMe" class="cls-1" d="M258.3 290.5a9 9 0 0 1-9 9h-27.7a9 9 0 0 1-1.4-18 5.8 5.8 0 0 1-.1-1 5.7 5.7 0 0 1 5.7-5.7 5.6 5.6 0 0 1 3.7 1.4c1.8-4 4-7.7 10.4-7.7s11.3 6 11.3 12.3v.8a9 9 0 0 1 7.1 8.9z"/><path class="cls-1" d="M253.8 158.5l6.8-20.4a2 2 0 0 0-.2-2 3.1 3.1 0 0 0-2.4-1h-38.6l-1-4.9a2.7 2.7 0 0 0-2.8-2.3h-10.9a1.5 1.5 0 0 0-1.7 1.6v2.8c0 1 .6 1.3 1.8 1.3h9.2l7 29.8a6.8 6.8 0 0 0 4.7 11.3c3.4 0 5.9-3.2 6.3-5.1h13.7a6.7 6.7 0 0 0 6.3 5.1 6.6 6.6 0 0 0 6.4-6.6c0-3.5-2.1-6.6-6.4-6.6a6.2 6.2 0 0 0-4.8 2.4h-16.8a5.3 5.3 0 0 0-4.6-2.5l-.2-1.2h25.5c2 0 2.3-.7 2.7-1.7zm-1.8 7.2a2.4 2.4 0 1 1-2.4 2.4 2.4 2.4 0 0 1 2.4-2.4zm-24 2.4a2.4 2.4 0 1 1-2.4-2.4 2.4 2.4 0 0 1 2.4 2.4zM214.5 216.9c0 10.4 9.4 18.9 21 18.9a22.8 22.8 0 0 0 8.6-1.6c4.8 2.7 11.3 3.7 11.6 3.7h.1a.7.7 0 0 0 .5-1.2c-1.6-1.6-2.7-5-3.1-9.6a17.4 17.4 0 0 0 3.3-10.2c0-10.4-9.4-18.9-21-18.9s-21 8.5-21 18.9zm28 0a2.8 2.8 0 1 1 2.8 2.8 2.8 2.8 0 0 1-2.8-2.8zm-9.8 0a2.8 2.8 0 1 1 2.8 2.8 2.8 2.8 0 0 1-2.8-2.8zm-9.8 0a2.8 2.8 0 1 1 2.8 2.8 2.8 2.8 0 0 1-2.8-2.8z"/></svg>