<svg id="Layer_1" data-name="Layer 1" xmlns="http://www.w3.org/2000/svg" viewBox="0 0 300 300"><defs><style>.cls-1,.cls-2,.cls-4{fill:none;stroke:#0288d1}.cls-1,.cls-2{stroke-miterlimit:10}.cls-1{stroke-width:9px}.cls-2{stroke-width:4px}.cls-3{fill:#ffc107}.cls-4{stroke-linecap:round;stroke-linejoin:round;stroke-width:3px;stroke-dasharray:8.01 17.01}</style></defs><title>offshoreitservices</title><circle class="cls-1" cx="150" cy="150" r="123.9"/><path class="cls-2" d="M149.9 274.1a146.9 146.9 0 0 1 0-248.2M150.1 25.9a146.9 146.9 0 0 1 0 248.3M150 26.1v247.8M252.6 81H47.4M252.6 214.6H47.4"/><path class="cls-3" d="M59.6 168.1a14.5 14.5 0 0 0-13.1 20.8l13.1 25.7 13-25.4a14.5 14.5 0 0 0-13-21.1zm0 23.3a8.7 8.7 0 1 1 8.7-8.7 8.7 8.7 0 0 1-8.7 8.7zM170.6 130.3a14.5 14.5 0 0 0-13.1 20.8l13.1 25.7 13-25.4a14.5 14.5 0 0 0-13-21.1zm0 23.3a8.7 8.7 0 1 1 8.7-8.7 8.7 8.7 0 0 1-8.7 8.7zM238.1 89.6a14.5 14.5 0 0 0-13.1 20.8l13.1 25.7 13-25.4a14.5 14.5 0 0 0-13-21.1zm0 23.3a8.7 8.7 0 1 1 8.7-8.7 8.7 8.7 0 0 1-8.7 8.7z"/><circle class="cls-4" cx="150" cy="150" r="147.3"/></svg>