<svg xmlns="http://www.w3.org/2000/svg" width="300" height="300" viewBox="0 0 104.001 104.001"><defs><style>.cls-1{fill:#fff;fill-rule:evenodd}</style></defs><path id="offshore_n" class="cls-1" d="M12.318 46.642l9.85.165-8.043 10.2zm33.46-30.626l-9.81-.909 8.76-9.563zM13.691 30.848A14.491 14.491 0 0 0 28 45.482a14.636 14.636 0 0 0 0-29.265 14.491 14.491 0 0 0-14.309 14.631zm1.753 0A12.717 12.717 0 0 1 28 18.007a12.843 12.843 0 0 1 0 25.679 12.71 12.71 0 0 1-12.556-12.838zm14.605-14.106s.308 4.395 1.69 5.179 3.061 2.51 3.677 2.823 1.382 2.986 1.228 4.082-2 2.354-1.53 3.454a2.982 2.982 0 0 1-.306 2.358s-.767 3.6-1.233 4.077-3.22 1.726-2.6 2.506 2.453-.152 4.3-.626 3.673-1.391 4.288-2.335a6.769 6.769 0 0 0 1.08-4.1 5.692 5.692 0 0 0-2.153-4.39c-.761-.555-1.384-2.982-.918-3.769a5.255 5.255 0 0 1 2.143-1.408s-.46-5.653-9.666-7.851zm-10.131 3.3s2.3 2.982 1.533 4.08-2.914 1.1-2.914 2.2a15.207 15.207 0 0 0 0 2.665c.153.472 1.384.787.461 1.571a38.261 38.261 0 0 1-4.3 2.515s-.459-5.971 1.533-8.635a48.245 48.245 0 0 1 3.687-4.399zm-2.333 17.624s.329-3.471 1.208-3.919 1.312-1.571 2.52-.671 2.847 1.567 3.5 1.34.44 2.465-1.533 3.475 2.08 2.913-.222 3.248-5.144-1.115-5.473-3.473zm4.426-9.954s1.206-5.044 1.969-4.26.551 3.473.113 4.037-2.745 3.359-2.082.223zm6.011-18.2c4.562 0 9.647.679 11.165 2.12l3.166-3.242C38.956 5.4 33.8 5 28.026 5 14.19 5 2.973 16.472 2.973 30.619A25.84 25.84 0 0 0 8.24 46.29l3.143-3.214a21.3 21.3 0 0 1-4.028-12.44A20.9 20.9 0 0 1 28.022 9.507zm20.949 7.417l-3.4 2.931A21.336 21.336 0 0 1 48.55 32.6c-.977 11.626-10.87 19.73-22.357 19.251-3.64-.324-5.227-.522-6.791-1.567L16 54c2.628 1.31 5.382 1.941 9.814 2.332C39.6 57.541 51.73 47.092 52.913 33a25.954 25.954 0 0 0-3.942-16.076z" transform="translate(24.016 21)"/></svg>