<svg xmlns="http://www.w3.org/2000/svg" xmlns:xlink="http://www.w3.org/1999/xlink" xmlns:fi="http://pattern.flaticon.com/" width="2160" height="1080" viewBox="0 0 1434.5351043643263 717.2675521821632"><rect width="100%" height="100%" fill="#fff"/><defs><g transform="matrix(.07813 0 0 .07813 242.5 67.5)" id="a"><circle cx="256" cy="256" r="256"/><g fill="#fff"><path d="M417.408 318.496H94.576v-170.88h322.832v170.88zm-306.832-16h290.832V163.6H110.576v138.896zM93 348h324v16H93z"/></g></g><g transform="matrix(.13672 0 0 .13672 315 140)" id="c"><circle cx="256" cy="256" r="256" fill="#f33052"/><g fill="#fff"><path d="M125 117h194v16H125zM192 174h194v16H192zM125 248h194v16H125zM192 305h194v16H192zM125 378h194v16H125z"/></g></g><g id="e"><path d="M0 346.68v-310c0-5.44 4.72-10 10.48-10H501.6c5.68 0 10.4 4.56 10.4 10v310H0z" transform="translate(155 330) scale(.07813)"/><g fill="#999"><path d="M512 346.68v42.64c0 5.92-4.72 10.72-10.48 10.72H10.48C4.72 400.04 0 395.24 0 389.4v-42.64h512v-.08zM330.64 474.68H181.36L192 400.04h128z" transform="translate(155 330) scale(.07813)"/></g><g fill="#666"><path d="M192 400.04h128l6.64 46.56-137.12-29.2zM144 474h224v10H144z" transform="translate(155 330) scale(.07813)"/></g><g fill="#fff" transform="translate(155 330) scale(.07813)"><circle cx="149" cy="69" r="10"/><circle cx="106" cy="69" r="10"/><circle cx="64" cy="69" r="10"/></g><path fill="#999" d="M181 64h277v10H181z" transform="translate(155 330) scale(.07813)"/><g fill="#f33052"><path d="M263.44 144.04l5.28 20.32c1.12 4.48 2.24 8.56 2.96 12.72h.24c.88-4.08 2.24-8.32 3.52-12.64l6.56-20.4h6.08l6.16 19.92c1.52 4.8 2.64 8.96 3.52 13.04h.24c.64-4.08 1.76-8.24 3.04-12.96l5.76-20h7.2l-12.88 39.92h-6.56l-6.08-19.04c-1.44-4.48-2.56-8.4-3.52-13.12h-.16c-.96 4.8-2.24 8.88-3.6 13.2l-6.4 18.96H268l-12-39.92h7.44zM325.12 144.04l5.28 20.32c1.12 4.48 2.24 8.56 2.96 12.72h.24c.88-4.08 2.24-8.32 3.52-12.64l6.56-20.4h6.08l6.16 19.92c1.52 4.8 2.64 8.96 3.52 13.04h.24c.64-4.08 1.76-8.24 3.04-12.96l5.76-20h7.2l-12.88 39.92h-6.56l-6.08-19.04c-1.44-4.48-2.56-8.4-3.52-13.12h-.24c-.96 4.8-2.24 8.88-3.6 13.2l-6.4 18.96h-6.56l-12.16-39.92h7.44zM386.8 144.04l5.28 20.32c1.12 4.48 2.24 8.56 2.96 12.72h.24c.88-4.08 2.24-8.32 3.52-12.64l6.56-20.4h6.08l6.16 19.92c1.52 4.8 2.64 8.96 3.52 13.04h.24c.64-4.08 1.76-8.24 3.04-12.96l5.76-20h7.2l-12.88 39.92h-6.56l-6.08-19.04c-1.44-4.48-2.56-8.4-3.52-13.12h-.16c-.96 4.8-2.24 8.88-3.6 13.2l-6.4 18.96h-6.56l-12.24-39.92h7.44zM74 144h146v10H74z" transform="translate(155 330) scale(.07813)"/></g><path fill="#999" d="M74 186h146v10H74z" transform="translate(155 330) scale(.07813)"/><path fill="#fff" d="M256 197h181v10H256z" transform="translate(155 330) scale(.07813)"/><g fill="#999"><path d="M74 208h146v10H74zM74 229h146v10H74zM74 250h146v10H74zM74 272h146v10H74z" transform="translate(155 330) scale(.07813)"/></g><path fill="#f33052" d="M384 229h53v53h-53z" transform="translate(155 330) scale(.07813)"/><path fill="#999" d="M320 229h53v53h-53z" transform="translate(155 330) scale(.07813)"/><g fill="#fff"><path d="M256 229h53v53h-53z" transform="translate(155 330) scale(.07813)"/><path d="M460.72 26.68H10.48C4.72 26.68 0 31.24 0 36.68v179.44L460.72 26.68z" opacity=".2" transform="translate(155 330) scale(.07813)"/></g></g><g transform="rotate(14.998 193.408 -148.399) scale(.17578)" id="g"><circle cx="256" cy="256" r="256"/><g fill="#f33052"><path d="M133.376 201.328v74.784c0 13.92-2.304 23.152-6.912 27.712-4.608 4.544-13.968 6.832-28.096 6.832-15.04 0-24.8-2.208-29.264-6.592s-6.704-14-6.704-28.816l.24-8.032h19.616c.32 4.032.48 7.04.48 9.056 0 1.904.08 4.208.24 6.912.32 6.56 5.536 9.84 15.648 9.84 6.032 0 9.904-1.184 11.632-3.536 1.712-2.352 2.576-7.664 2.576-15.92v-72.256h20.544v.016zM218.016 288.912h-46.768l-6.752 20.8h-21.744l36.032-108.368h30.896l36.592 108.368h-21.344l-6.912-20.8zm-4.768-15.168l-18.736-56.448-18.4 56.448h37.136zM325.04 201.328h21.744L311.84 309.696h-31.6l-34.608-108.368h21.344l20.336 61.376c1.904 5.872 4.736 15.712 8.496 29.536h.544l2.064-7.392c2.544-9.2 4.72-16.56 6.512-22.064l20.112-61.456zM421.328 288.912H374.56l-6.752 20.8h-21.744l36.048-108.368h30.88l36.592 108.368H428.24l-6.912-20.8zm-4.752-15.168l-18.736-56.448-18.416 56.448h37.152z"/></g></g><g id="i"><path d="M469.28 396.8V102.4c0-7.04-5.76-12.8-12.8-12.8H55.52c-7.04 0-12.8 5.76-12.8 12.8v294.4h426.56z" transform="translate(77.5 340) scale(.03906)"/><path fill="#d8d8d8" d="M0 396h512v8H0z" transform="translate(77.5 340) scale(.03906)"/><path d="M486.4 422.4H25.6L0 405.36h512z" fill="#999" transform="translate(77.5 340) scale(.03906)"/><g fill="#fff" transform="translate(77.5 340) scale(.03906)"><circle cx="162" cy="124" r="8"/><circle cx="128" cy="124" r="8"/><circle cx="93" cy="124" r="8"/></g><path fill="#999" d="M187 119h238v8H187z" transform="translate(77.5 340) scale(.03906)"/><path fill="#f33052" d="M102 235h136v25H102z" transform="translate(77.5 340) scale(.03906)"/><g fill="#999"><path d="M102 286h136v25H102zM102 183h136v25H102z" transform="translate(77.5 340) scale(.03906)"/></g><path fill="#f33052" d="M273 235h136v25H273z" transform="translate(77.5 340) scale(.03906)"/><g fill="#999"><path d="M273 286h136v25H273zM273 183h136v25H273z" transform="translate(77.5 340) scale(.03906)"/></g><g fill="#fff"><path d="M102 337h8v8h-8zM119 337h8v8h-8zM136 337h8v8h-8zM153 337h8v8h-8zM273 337h8v8h-8zM290 337h8v8h-8zM307 337h8v8h-8zM324 337h8v8h-8z" transform="translate(77.5 340) scale(.03906)"/><path d="M341.44 89.92H55.36c-7.04 0-12.8 5.76-12.8 12.8v138.8l298.88-151.6z" opacity=".2" transform="translate(77.5 340) scale(.03906)"/></g></g><g transform="matrix(.03906 0 0 .03906 252.5 340)" id="k"><circle cx="256" cy="256" r="256" fill="#f33052"/><g fill="#fff"><path d="M184.512 271.52h20.64v3.728c0 15.072-2.752 24.832-8.256 29.248s-17.664 6.624-36.512 6.624c-21.392 0-34.544-3.488-39.472-10.464-4.928-7.008-7.376-25.664-7.376-56.064 0-17.888 3.328-29.648 10-35.28 6.672-5.632 20.608-8.448 41.84-8.448 15.456 0 25.76 2.32 30.96 6.944 5.184 4.64 7.776 13.824 7.776 27.6l.08 2.448h-20.64v-2.768c0-7.088-1.328-11.648-4-13.632s-8.784-2.976-18.304-2.976c-12.768 0-20.416 1.568-22.992 4.672-2.576 3.12-3.856 12.384-3.856 27.792 0 20.752 1.152 33.024 3.456 36.832 2.32 3.808 9.744 5.712 22.336 5.712 10.224 0 16.848-1.04 19.888-3.168 3.04-2.112 4.56-6.784 4.56-13.968l-.128-4.832zM298.512 233.408h-20.096c-.096-.992-.16-1.744-.16-2.224-.464-6.096-1.808-9.92-4.032-11.488-2.224-1.552-7.472-2.336-15.712-2.336-9.744 0-16.112.896-19.088 2.688-3.008 1.792-4.48 5.6-4.48 11.36 0 6.832 1.216 10.928 3.648 12.304 2.432 1.392 10.48 2.432 24.128 3.184 16.16.896 26.592 3.2 31.344 6.912 4.72 3.696 7.088 11.408 7.088 23.088 0 14.4-2.784 23.696-8.336 27.904-5.568 4.224-17.808 6.32-36.752 6.32-17.04 0-28.352-2.064-33.936-6.192s-8.368-12.48-8.368-25.088l-.08-3.968h20l.08 2.32c0 7.568 1.328 12.192 3.968 13.888 2.656 1.68 9.872 2.528 21.68 2.528 9.184 0 15.056-.976 17.632-2.944 2.528-1.952 3.808-6.48 3.808-13.568 0-5.248-.976-8.736-2.912-10.448s-6.096-2.768-12.496-3.12l-11.36-.72c-17.136-.992-28.112-3.392-32.864-7.136-4.768-3.76-7.152-11.824-7.152-24.224 0-12.656 2.88-21.072 8.624-25.28 5.728-4.224 17.2-6.32 34.4-6.32 16.32 0 27.28 1.92 32.944 5.792 5.68 3.856 8.496 11.408 8.496 22.624v4.144h-.016zM395.856 233.408H375.76c-.112-.992-.16-1.744-.16-2.224-.464-6.096-1.824-9.92-4.048-11.488-2.224-1.552-7.472-2.336-15.712-2.336-9.728 0-16.112.896-19.088 2.688s-4.48 5.6-4.48 11.36c0 6.832 1.216 10.928 3.664 12.304 2.416 1.392 10.464 2.432 24.128 3.184 16.144.896 26.592 3.2 31.328 6.912s7.088 11.408 7.088 23.088c0 14.4-2.768 23.696-8.336 27.904-5.568 4.224-17.808 6.32-36.768 6.32-17.024 0-28.336-2.064-33.936-6.192-5.584-4.128-8.368-12.48-8.368-25.088l-.08-3.968h20.016l.08 2.32c0 7.568 1.312 12.192 3.968 13.888 2.64 1.68 9.856 2.528 21.664 2.528 9.2 0 15.072-.976 17.632-2.944 2.528-1.952 3.808-6.48 3.808-13.568 0-5.248-.976-8.736-2.912-10.448-1.92-1.712-6.096-2.768-12.496-3.12l-11.36-.72c-17.136-.992-28.096-3.392-32.864-7.136-4.768-3.76-7.136-11.824-7.136-24.224 0-12.656 2.864-21.072 8.608-25.28 5.728-4.224 17.216-6.32 34.4-6.32 16.32 0 27.296 1.92 32.96 5.792 5.664 3.856 8.496 11.408 8.496 22.624v4.144z"/></g></g><g transform="matrix(.07813 0 0 .07813 67.5 67.5)" id="m"><circle cx="256" cy="256" r="256"/><g fill="#f33052"><path d="M145.84 204.144V307.84h-19.68v-44.832H77.536v44.832h-19.68V204.144h19.68v42.32h48.624v-42.32h19.68zM205.408 221.776v86.08h-19.68v-86.08h-29.936v-17.632h80.624v17.632h-31.008zM367.616 204.144V307.84h-19.664v-56.528c0-4.496.128-9.632.368-15.344l.368-7.744.384-7.664h-.592l-2.352 7.216-2.288 7.216c-2.128 6.48-3.776 11.264-4.944 14.352l-22.8 58.496h-17.92l-23.024-58.048c-1.264-3.184-2.944-7.968-5.008-14.352l-2.336-7.216-2.352-7.136h-.608l.368 7.52.384 7.616c.304 5.872.448 10.912.448 15.104v56.528h-19.68V204.16h32.064l18.544 48.016c1.264 3.344 2.944 8.128 5.008 14.352l2.288 7.216 2.336 7.136h.688l2.208-7.136 2.288-7.136c1.872-6.032 3.504-10.8 4.864-14.288l18.24-48.176h32.72zM405.52 204.144v86.08h48.624v17.632h-68.32V204.16h19.696v-.016z"/></g></g><g id="o"><path d="M0 346.68v-310c0-5.44 4.72-10 10.48-10H501.6c5.68 0 10.4 4.56 10.4 10v310H0z" transform="rotate(-15.002 636.72 -426.773) scale(.13672)"/><g fill="#999"><path d="M512 346.68v42.64c0 5.92-4.72 10.72-10.48 10.72H10.48C4.72 400.04 0 395.24 0 389.4v-42.64h512v-.08zM330.64 474.68H181.36L192 400.04h128z" transform="rotate(-15.002 636.72 -426.773) scale(.13672)"/></g><g fill="#666"><path d="M192 400.04h128l6.64 46.56-137.12-29.2zM144 474h224v10H144z" transform="rotate(-15.002 636.72 -426.773) scale(.13672)"/></g><g fill="#fff" transform="rotate(-15.002 636.72 -426.773) scale(.13672)"><circle cx="149" cy="69" r="10"/><circle cx="106" cy="69" r="10"/><circle cx="64" cy="69" r="10"/></g><path fill="#999" d="M181 64h277v10H181z" transform="rotate(-15.002 636.72 -426.773) scale(.13672)"/><path fill="#f33052" d="M266 144h170v21H266z" transform="rotate(-15.002 636.72 -426.773) scale(.13672)"/><path fill="#fff" d="M266 186h170v10H266z" transform="rotate(-15.002 636.72 -426.773) scale(.13672)"/><path fill="#999" d="M266 229h170v10H266z" transform="rotate(-15.002 636.72 -426.773) scale(.13672)"/><path fill="#f33052" d="M266 272h170v10H266z" transform="rotate(-15.002 636.72 -426.773) scale(.13672)"/><path fill="#999" d="M266 208h170v10H266z" transform="rotate(-15.002 636.72 -426.773) scale(.13672)"/><g fill="#f33052"><path d="M213.36 218.68H96c-5.84 0-10.64-4.8-10.64-10.64V133.4c0-5.84 4.8-10.64 10.64-10.64h117.36c5.84 0 10.64 4.8 10.64 10.64v74.64c0 5.84-4.8 10.64-10.64 10.64z" transform="rotate(-15.002 636.72 -426.773) scale(.13672)"/><path d="M192 250.68v-42.64h-53.36zM143.6 297.48H80.4c-3.12 0-5.76-2.56-5.76-5.76v-40.24c0-3.12 2.56-5.76 5.76-5.76h63.2c3.12 0 5.76 2.56 5.76 5.76v40.24c0 3.2-2.64 5.76-5.76 5.76z" transform="rotate(-15.002 636.72 -426.773) scale(.13672)"/><path d="M137.84 314.68v-22.96h-28.72z" transform="rotate(-15.002 636.72 -426.773) scale(.13672)"/></g><g fill="#fff"><path d="M149 154h10v10h-10zM128 154h10v10h-10zM106 154h10v10h-10zM170 154h10v10h-10zM192 154h10v10h-10zM149 176h10v10h-10zM170 176h10v10h-10zM192 176h10v10h-10zM85 261h10v10H85zM106 261h10v10h-10zM128 261h10v10h-10z" transform="rotate(-15.002 636.72 -426.773) scale(.13672)"/><path d="M460.72 26.68H10.48C4.72 26.68 0 31.24 0 36.68v179.44L460.72 26.68z" opacity=".2" transform="rotate(-15.002 636.72 -426.773) scale(.13672)"/></g></g><g transform="translate(217.5 217.5) scale(.17578)" id="q"><circle cx="256" cy="256" r="256" fill="#e8e8e8"/><g fill="#fff"><path d="M365.6 398.96V320.8h-97.68z"/><path d="M358.08 336H153.92C117.68 336 88 306.32 88 270.08v-76.16c0-36.24 29.68-65.92 65.92-65.92h204.16c36.24 0 65.92 29.68 65.92 65.92v76.16c0 36.32-29.68 65.92-65.92 65.92z"/></g><path d="M147.12 254.08c3.76 2.48 10.4 5.04 16.8 5.04 9.28 0 13.6-4.64 13.6-10.4 0-6.08-3.6-9.44-13.04-12.88-12.56-4.48-18.56-11.44-18.56-19.84 0-11.28 9.12-20.56 24.16-20.56 7.12 0 13.28 2 17.2 4.32l-3.2 9.28c-2.72-1.76-7.84-4.08-14.32-4.08-7.52 0-11.76 4.32-11.76 9.52 0 5.76 4.16 8.4 13.28 11.84 12.16 4.64 18.4 10.72 18.4 21.12 0 12.32-9.52 20.96-26.16 20.96-7.68 0-14.8-1.92-19.68-4.8l3.28-9.52zM206.24 216c0-7.2-.16-13.2-.56-18.96h11.12l.56 11.28h.4c3.92-6.64 10.4-12.88 22-12.88 9.52 0 16.8 5.76 19.84 14.08h.32c2.16-3.92 4.88-6.96 7.84-9.12 4.24-3.2 8.8-4.96 15.52-4.96 9.28 0 23.04 6.08 23.04 30.4v41.28h-12.48v-39.68c0-13.44-4.96-21.6-15.2-21.6-7.2 0-12.88 5.36-15.04 11.6-.56 1.76-1.04 4.08-1.04 6.4v43.28h-12.48v-42c0-11.12-4.88-19.28-14.64-19.28-7.92 0-13.76 6.4-15.76 12.72-.72 1.92-1.04 4.08-1.04 6.24v42.24h-12.48V216h.08zM325.28 254.08c3.76 2.48 10.4 5.04 16.8 5.04 9.28 0 13.6-4.64 13.6-10.4 0-6.08-3.6-9.44-13.04-12.88-12.56-4.48-18.56-11.44-18.56-19.84 0-11.28 9.12-20.56 24.16-20.56 7.12 0 13.28 2 17.2 4.32l-3.2 9.28c-2.72-1.76-7.84-4.08-14.32-4.08-7.52 0-11.76 4.32-11.76 9.52 0 5.76 4.16 8.4 13.28 11.84 12.16 4.64 18.4 10.72 18.4 21.12 0 12.32-9.52 20.96-26.16 20.96-7.68 0-14.8-1.92-19.68-4.8l3.28-9.52z"/></g><g id="s"><path d="M469.28 396.8V102.4c0-7.04-5.76-12.8-12.8-12.8H55.52c-7.04 0-12.8 5.76-12.8 12.8v294.4h426.56z" transform="translate(62.5 237.5) scale(.09766)"/><path fill="#d8d8d8" d="M0 396h512v8H0z" transform="translate(62.5 237.5) scale(.09766)"/><path d="M486.4 422.4H25.6L0 405.36h512z" fill="#999" transform="translate(62.5 237.5) scale(.09766)"/><g fill="#fff" transform="translate(62.5 237.5) scale(.09766)"><circle cx="162" cy="124" r="8"/><circle cx="128" cy="124" r="8"/><circle cx="93" cy="124" r="8"/></g><path fill="#999" d="M187 119h238v8H187z" transform="translate(62.5 237.5) scale(.09766)"/><g fill="#fff" transform="translate(62.5 237.5) scale(.09766)"><path d="M375 303h34v8h-34zM320 303h34v8h-34zM266 303h34v8h-34zM211 303h34v8h-34zM157 303h34v8h-34zM102 303h34v8h-34z"/><circle cx="145" cy="226" r="12"/></g><g fill="#f33052"><path d="M187.76 232.88v-12.8l-13.04-1.28c-.72-2.72-1.92-5.28-3.36-7.68l8.4-10.24-9.04-9.04-10.64 8.72a28.25 28.25 0 0 0-7.12-2.64l-1.44-14.08h-12.88l-1.44 14.08c-2.56.56-4.96 1.44-7.12 2.64l-10.64-8.72-9.04 8.96 8.4 10.24c-1.44 2.32-2.56 4.96-3.36 7.68L102.4 220v12.8l13.04 1.28a27.36 27.36 0 0 0 3.36 7.68L110.4 252l9.04 9.04 10.64-8.72a28.25 28.25 0 0 0 7.12 2.64l1.44 14.08h12.88l1.44-14.08c2.56-.56 4.96-1.44 7.12-2.64l10.64 8.72 9.04-9.04-8.4-10.24c1.44-2.32 2.56-4.96 3.36-7.68l13.04-1.2zm-42.72 12.8c-10.64 0-19.28-8.64-19.28-19.28s8.64-19.28 19.28-19.28 19.28 8.64 19.28 19.28c0 10.72-8.64 19.28-19.28 19.28zM207 183h202v8H207z" transform="translate(62.5 237.5) scale(.09766)"/></g><g fill="#999"><path d="M207 209h202v8H207zM207 235h202v8H207zM207 260h202v8H207z" transform="translate(62.5 237.5) scale(.09766)"/></g><path fill="#f33052" d="M102 337h307v8H102z" transform="translate(62.5 237.5) scale(.09766)"/><path d="M340.64 89.6H54.48c-7.04 0-12.8 5.76-12.8 12.8v138.8L340.64 89.6z" opacity=".2" fill="#fff" transform="translate(62.5 237.5) scale(.09766)"/></g></defs><g fi:class="KUsePattern" opacity=".2"><pattern id="b" width="350" height="350" patternUnits="userSpaceOnUse"><use xlink:href="#a" x="-350" y="-350"/><use xlink:href="#a" y="-350"/><use xlink:href="#a" x="350" y="-350"/><use xlink:href="#a" x="-350"/><use xlink:href="#a"/><use xlink:href="#a" x="350"/><use xlink:href="#a" x="-350" y="350"/><use xlink:href="#a" y="350"/><use xlink:href="#a" x="350" y="350"/></pattern><rect width="100%" height="100%" fill="url(#b)"/></g><g fi:class="KUsePattern" opacity=".11"><pattern id="d" width="350" height="350" patternUnits="userSpaceOnUse"><use xlink:href="#c" x="-350" y="-350"/><use xlink:href="#c" y="-350"/><use xlink:href="#c" x="350" y="-350"/><use xlink:href="#c" x="-350"/><use xlink:href="#c"/><use xlink:href="#c" x="350"/><use xlink:href="#c" x="-350" y="350"/><use xlink:href="#c" y="350"/><use xlink:href="#c" x="350" y="350"/></pattern><rect width="100%" height="100%" fill="url(#d)"/></g><g fi:class="KUsePattern" opacity=".56"><pattern id="f" width="350" height="350" patternUnits="userSpaceOnUse"><use xlink:href="#e" x="-350" y="-350"/><use xlink:href="#e" y="-350"/><use xlink:href="#e" x="350" y="-350"/><use xlink:href="#e" x="-350"/><use xlink:href="#e"/><use xlink:href="#e" x="350"/><use xlink:href="#e" x="-350" y="350"/><use xlink:href="#e" y="350"/><use xlink:href="#e" x="350" y="350"/></pattern><rect width="100%" height="100%" fill="url(#f)"/></g><g fi:class="KUsePattern" opacity=".15"><pattern id="h" width="350" height="350" patternUnits="userSpaceOnUse"><use xlink:href="#g" x="-350" y="-350"/><use xlink:href="#g" y="-350"/><use xlink:href="#g" x="350" y="-350"/><use xlink:href="#g" x="-350"/><use xlink:href="#g"/><use xlink:href="#g" x="350"/><use xlink:href="#g" x="-350" y="350"/><use xlink:href="#g" y="350"/><use xlink:href="#g" x="350" y="350"/></pattern><rect width="100%" height="100%" fill="url(#h)"/></g><g fi:class="KUsePattern" opacity=".21"><pattern id="j" width="350" height="350" patternUnits="userSpaceOnUse"><use xlink:href="#i" x="-350" y="-350"/><use xlink:href="#i" y="-350"/><use xlink:href="#i" x="350" y="-350"/><use xlink:href="#i" x="-350"/><use xlink:href="#i"/><use xlink:href="#i" x="350"/><use xlink:href="#i" x="-350" y="350"/><use xlink:href="#i" y="350"/><use xlink:href="#i" x="350" y="350"/></pattern><rect width="100%" height="100%" fill="url(#j)"/></g><g fi:class="KUsePattern" opacity=".44"><pattern id="l" width="350" height="350" patternUnits="userSpaceOnUse"><use xlink:href="#k" x="-350" y="-350"/><use xlink:href="#k" y="-350"/><use xlink:href="#k" x="350" y="-350"/><use xlink:href="#k" x="-350"/><use xlink:href="#k"/><use xlink:href="#k" x="350"/><use xlink:href="#k" x="-350" y="350"/><use xlink:href="#k" y="350"/><use xlink:href="#k" x="350" y="350"/></pattern><rect width="100%" height="100%" fill="url(#l)"/></g><g fi:class="KUsePattern" opacity=".36"><pattern id="n" width="350" height="350" patternUnits="userSpaceOnUse"><use xlink:href="#m" x="-350" y="-350"/><use xlink:href="#m" y="-350"/><use xlink:href="#m" x="350" y="-350"/><use xlink:href="#m" x="-350"/><use xlink:href="#m"/><use xlink:href="#m" x="350"/><use xlink:href="#m" x="-350" y="350"/><use xlink:href="#m" y="350"/><use xlink:href="#m" x="350" y="350"/></pattern><rect width="100%" height="100%" fill="url(#n)"/></g><g fi:class="KUsePattern" opacity=".15"><pattern id="p" width="350" height="350" patternUnits="userSpaceOnUse"><use xlink:href="#o" x="-350" y="-350"/><use xlink:href="#o" y="-350"/><use xlink:href="#o" x="350" y="-350"/><use xlink:href="#o" x="-350"/><use xlink:href="#o"/><use xlink:href="#o" x="350"/><use xlink:href="#o" x="-350" y="350"/><use xlink:href="#o" y="350"/><use xlink:href="#o" x="350" y="350"/></pattern><rect width="100%" height="100%" fill="url(#p)"/></g><g fi:class="KUsePattern" opacity=".39"><pattern id="r" width="350" height="350" patternUnits="userSpaceOnUse"><use xlink:href="#q" x="-350" y="-350"/><use xlink:href="#q" y="-350"/><use xlink:href="#q" x="350" y="-350"/><use xlink:href="#q" x="-350"/><use xlink:href="#q"/><use xlink:href="#q" x="350"/><use xlink:href="#q" x="-350" y="350"/><use xlink:href="#q" y="350"/><use xlink:href="#q" x="350" y="350"/></pattern><rect width="100%" height="100%" fill="url(#r)"/></g><g fi:class="KUsePattern" opacity=".23"><pattern id="t" width="350" height="350" patternUnits="userSpaceOnUse"><use xlink:href="#s" x="-350" y="-350"/><use xlink:href="#s" y="-350"/><use xlink:href="#s" x="350" y="-350"/><use xlink:href="#s" x="-350"/><use xlink:href="#s"/><use xlink:href="#s" x="350"/><use xlink:href="#s" x="-350" y="350"/><use xlink:href="#s" y="350"/><use xlink:href="#s" x="350" y="350"/></pattern><rect width="100%" height="100%" fill="url(#t)"/></g></svg>