<svg id="Layer_1" data-name="Layer 1" xmlns="http://www.w3.org/2000/svg" viewBox="0 0 300 300"><defs><style>.cls-1{fill:#ffc107}.cls-2,.cls-4,.cls-5{fill:none}.cls-2,.cls-3,.cls-4,.cls-5{stroke:#0288d1}.cls-2{stroke-linejoin:round;stroke-width:10px}.cls-3,.cls-4,.cls-5{stroke-miterlimit:10}.cls-3{stroke-width:8px}.cls-4{stroke-width:14px}.cls-5{stroke-linecap:round;stroke-width:13px}</style></defs><title>softwaredev</title><path class="cls-1" d="M112.9 95.6a4.1 4.1 0 0 0-5.6-1.4l-47.9 28.5a4.1 4.1 0 0 0 0 7.1l47.9 28.5a4.1 4.1 0 1 0 4.2-7.1l-42-25 42-25a4.1 4.1 0 0 0 1.4-5.6zM187.1 156.9a4.1 4.1 0 0 0 5.6 1.4l47.9-28.5a4.1 4.1 0 0 0 0-7.1l-47.9-28.5a4.1 4.1 0 1 0-4.2 7.1l42 25-42 25a4.1 4.1 0 0 0-1.4 5.6zM165.7 95.4l-38.3 57.1a4.1 4.1 0 1 0 6.8 4.6l38.4-57.1a4.1 4.1 0 1 0-6.8-4.6z"/><path class="cls-2" d="M9.4 37.6h281.3v177.25H9.4z"/><path class="cls-3" d="M9.4 190.3h281.2"/><path class="cls-4" d="M150 214.2v30"/><path class="cls-5" d="M123.2 244.2h53.6"/></svg>