<svg xmlns="http://www.w3.org/2000/svg" viewBox="0 0 300 300"><defs><style>.a{fill:#08446d}.b{fill:#00233f}.c{fill:#22efab}.d{fill:#0dd396}.e{fill:#c6640c}.f{fill:#5a8ca8}</style></defs><title>workingwithagencies</title><path class="a" d="M251.7 296.6H10.5v-64.8L46 197.3h205.7v99.3zM105.1 3.4h33.1v28.37h-33.1z"/><path class="b" d="M105.1 3.4h33.1v28.4"/><path class="a" d="M76.7 12.9h89.8v94.58H76.7z"/><path class="b" d="M76.7 12.9h89.9v94.5"/><path class="b" d="M57.8 46h127.7v250.62H57.8z"/><path class="c" d="M109.8 69.6h23.6v23.64h-23.6z"/><path class="d" d="M133.4 69.6v23.7h-23.6"/><path class="c" d="M109.8 102.7h23.6v23.64h-23.6z"/><path class="d" d="M133.4 102.7v23.7h-23.6"/><path class="c" d="M109.8 135.8h23.6v23.64h-23.6z"/><path class="d" d="M133.4 135.8v23.7h-23.6"/><path class="c" d="M109.8 168.9h23.6v23.64h-23.6z"/><path class="d" d="M133.4 168.9v23.7h-23.6"/><path class="c" d="M109.8 202h23.6v23.64h-23.6z"/><path class="d" d="M133.4 202v23.7h-23.6"/><path class="c" d="M76.7 102.7h23.6v23.64H76.7z"/><path class="d" d="M100.3 102.7v23.7H76.7"/><path class="c" d="M76.7 135.8h23.6v23.64H76.7z"/><path class="d" d="M100.3 135.8v23.7H76.7"/><path class="c" d="M76.7 168.9h23.6v23.64H76.7z"/><path class="d" d="M100.3 168.9v23.7H76.7"/><path class="c" d="M76.7 202h23.6v23.64H76.7z"/><path class="d" d="M100.3 202v23.7H76.7"/><path class="c" d="M76.7 69.6h23.6v23.64H76.7z"/><path class="d" d="M100.3 69.6v23.7H76.7"/><path class="c" d="M142.9 69.6h23.6v23.64h-23.6z"/><path class="d" d="M166.6 69.6v23.7h-23.7"/><path class="c" d="M142.9 102.7h23.6v23.64h-23.6z"/><path class="d" d="M166.6 102.7v23.7h-23.7"/><path class="c" d="M142.9 135.8h23.6v23.64h-23.6z"/><path class="d" d="M166.6 135.8v23.7h-23.7"/><path class="c" d="M142.9 168.9h23.6v23.64h-23.6z"/><path class="d" d="M166.6 168.9v23.7h-23.7"/><path class="c" d="M142.9 202h23.6v23.64h-23.6z"/><path class="d" d="M166.6 202v23.7h-23.7"/><path class="e" d="M138.2 291.9v-37.4c0-3.3-3.3-5.2-6.6-5.2h-20.4c-3.3 0-6.1 2.4-6.1 5.2v37.4h33.1z"/><path class="a" d="M199.7 121.6h89.8v174.96h-89.8z"/><path class="a" d="M213.8 93.3h61.5v66.2h-61.5z"/><path class="a" d="M228 60.2h33.1v61.47H228z"/><path class="a" d="M225.7 124.9L244.6 9.6l18.9 115.3-18.9 19-18.9-19z"/><path class="f" d="M218.6 140.5h4.7v137.13h-4.7zM242.2 140.5h4.7v137.13h-4.7zM261.1 140.5h4.7v137.13h-4.7z"/></svg>