<svg xmlns="http://www.w3.org/2000/svg" viewBox="0 0 577.99 524.83"><defs><style>.cls-1{fill:none}.cls-2{clip-path:url(#clip-path)}.cls-3{fill:url(#linear-gradient)}</style><clipPath id="clip-path"><path class="cls-1" d="M509.34 462.28h-442a34 34 0 0 1-29.46-51l221-382.74a34 34 0 1 1 58.93 34l-191.5 331.7h324.1L416 334.7H288.36a34 34 0 1 1 0-68h147.32a34 34 0 0 1 29.46 17l73.66 127.55a34 34 0 0 1-29.46 51z"/></clipPath><linearGradient id="linear-gradient" x1="-3513.53" y1="-4137.42" x2="-3020.21" y2="-4137.42" gradientTransform="matrix(1.04 0 0 1 3679.97 4399.84)" gradientUnits="userSpaceOnUse"><stop offset="0" stop-color="#fff300"/><stop offset="1" stop-color="#009dff"/></linearGradient></defs><title>Asset 4</title><g id="Layer_2" data-name="Layer 2"><path class="cls-2 cls-3" transform="rotate(91.31 288.993 262.399)" d="M32.97-20.81h512.06v566.46H32.97z" id="Layer_1-2" data-name="Layer 1"/></g></svg>