<svg xmlns="http://www.w3.org/2000/svg" xmlns:xlink="http://www.w3.org/1999/xlink" xmlns:fi="http://pattern.flaticon.com/" width="2160" height="1080" viewBox="0 0 5040 2520"><rect width="100%" height="100%" fill="#2b2b2b"/><defs><path d="M465.167 211.614H280.245V26.691c0-8.424-11.439-26.69-34.316-26.69s-34.316 18.267-34.316 26.69v184.924H26.69C18.267 211.614 0 223.053 0 245.929s18.267 34.316 26.69 34.316h184.924v184.924c0 8.422 11.438 26.69 34.316 26.69s34.316-18.268 34.316-26.69V280.245H465.17c8.422 0 26.69-11.438 26.69-34.316s-18.27-34.315-26.693-34.315z" transform="matrix(.08947 0 0 .08947 155.982 140.982)" id="c" fill="#2980b9"/><path d="M377.87 24.126C361.786 8.042 342.417 0 319.769 0H82.227C59.579 0 40.211 8.042 24.125 24.126 8.044 40.212.002 59.576.002 82.228v237.543c0 22.647 8.042 42.014 24.123 58.101 16.086 16.085 35.454 24.127 58.102 24.127h237.542c22.648 0 42.011-8.042 58.102-24.127 16.085-16.087 24.126-35.453 24.126-58.101V82.228c-.004-22.648-8.046-42.016-24.127-58.102zm-12.422 295.645c0 12.559-4.47 23.314-13.415 32.264-8.945 8.945-19.698 13.411-32.265 13.411H82.227c-12.563 0-23.317-4.466-32.264-13.411-8.945-8.949-13.418-19.705-13.418-32.264V82.228c0-12.562 4.473-23.316 13.418-32.264 8.947-8.946 19.701-13.418 32.264-13.418h237.542c12.566 0 23.319 4.473 32.265 13.418 8.945 8.947 13.415 19.701 13.415 32.264v237.543h-.001z" transform="matrix(.14925 0 0 .14925 101 286)" id="f" fill="#ecf0f1"/><path d="M409.133 109.203c-19.608-33.592-46.205-60.189-79.798-79.796C295.736 9.801 259.058 0 219.273 0c-39.781 0-76.47 9.801-110.063 29.407-33.595 19.604-60.192 46.201-79.8 79.796C9.801 142.8 0 179.489 0 219.267c0 39.78 9.804 76.463 29.407 110.062 19.607 33.592 46.204 60.189 79.799 79.798 33.597 19.605 70.283 29.407 110.063 29.407s76.47-9.802 110.065-29.407c33.593-19.602 60.189-46.206 79.795-79.798 19.603-33.596 29.403-70.284 29.403-110.062.001-39.782-9.8-76.472-29.399-110.064z" transform="rotate(18.429 -61.983 660.576) scale(.03063)" id="h" fill="#7d8a2e"/><path d="M409.133 109.203c-19.608-33.592-46.205-60.189-79.798-79.796C295.736 9.801 259.058 0 219.273 0c-39.781 0-76.47 9.801-110.063 29.407-33.595 19.604-60.192 46.201-79.8 79.796C9.801 142.8 0 179.489 0 219.267c0 39.78 9.804 76.463 29.407 110.062 19.607 33.592 46.204 60.189 79.799 79.798 33.597 19.605 70.283 29.407 110.063 29.407s76.47-9.802 110.065-29.407c33.593-19.602 60.189-46.206 79.795-79.798 19.603-33.596 29.403-70.284 29.403-110.062.001-39.782-9.8-76.472-29.399-110.064zm-55.391 188.005c-13.894 23.791-32.736 42.633-56.527 56.534-23.791 13.894-49.771 20.834-77.945 20.834-28.167 0-54.149-6.94-77.943-20.834-23.791-13.901-42.633-32.743-56.527-56.534-13.897-23.791-20.843-49.772-20.843-77.941 0-28.171 6.949-54.152 20.843-77.943 13.891-23.791 32.738-42.637 56.527-56.53 23.791-13.895 49.772-20.84 77.943-20.84 28.173 0 54.154 6.945 77.945 20.84 23.791 13.894 42.634 32.739 56.527 56.53 13.895 23.791 20.838 49.772 20.838 77.943 0 28.169-6.943 54.15-20.838 77.941z" transform="matrix(.07587 -.02918 .02918 .07587 288.958 152.739)" id="a" fill="#263248"/><g id="j" fill="#fff"><path d="M37.542 52.33c.141.401.52.67.944.67H49.88a1 1 0 0 0 .954-.699l3.12-9.892a1.002 1.002 0 0 0-.285-1.044l-9-8.108a.999.999 0 0 0-1.335-.003l-9 8.029a1 1 0 0 0-.278 1.076l3.486 9.971zm6.455-16.987l7.855 7.077L49.146 51h-9.95l-3.031-8.669 7.832-6.988z" transform="rotate(45 -162.699 381.348) scale(.50111)"/><path d="M59 0H1a1 1 0 0 0-1 1v58a1 1 0 0 0 1 1h58a1 1 0 0 0 1-1V1a1 1 0 0 0-1-1zm-1 58H2V2h56v56z" transform="rotate(45 -162.699 381.348) scale(.50111)"/><path d="M7 26h18a1 1 0 0 0 1-1V7a1 1 0 0 0-1-1H7a1 1 0 0 0-1 1v18a1 1 0 0 0 1 1zM8 8h16v16H8V8zM35 26h18a.998.998 0 0 0 .895-1.447l-9-18c-.34-.678-1.449-.678-1.789 0l-9 18A.998.998 0 0 0 35 26zm9-16.764L51.382 24H36.618L44 9.236zM16 54c5.514 0 10-4.486 10-10s-4.486-10-10-10S6 38.486 6 44s4.486 10 10 10zm0-18c4.411 0 8 3.589 8 8s-3.589 8-8 8-8-3.589-8-8 3.589-8 8-8z" transform="rotate(45 -162.699 381.348) scale(.50111)"/></g></defs><g fi:class="KUsePattern"><pattern id="b" width="350" height="350" patternUnits="userSpaceOnUse"><use xlink:href="#a" x="-350" y="-350"/><use xlink:href="#a" y="-350"/><use xlink:href="#a" x="350" y="-350"/><use xlink:href="#a" x="-350"/><use xlink:href="#a"/><use xlink:href="#a" x="350"/><use xlink:href="#a" x="-350" y="350"/><use xlink:href="#a" y="350"/><use xlink:href="#a" x="350" y="350"/></pattern><rect width="100%" height="100%" fill="url(#b)"/></g><g fi:class="KUsePattern"><pattern id="d" width="350" height="350" patternUnits="userSpaceOnUse"><use xlink:href="#c" x="-350" y="-350"/><use xlink:href="#c" y="-350"/><use xlink:href="#c" x="350" y="-350"/><use xlink:href="#c" x="-350"/><use xlink:href="#c"/><use xlink:href="#c" x="350"/><use xlink:href="#c" x="-350" y="350"/><use xlink:href="#c" y="350"/><use xlink:href="#c" x="350" y="350"/></pattern><rect width="100%" height="100%" fill="url(#d)"/></g><g fi:class="KUsePattern" transform="translate(20 20)"><pattern id="e" width="350" height="350" patternUnits="userSpaceOnUse"><use xlink:href="#UNKNOWN" x="-350" y="-350"/><use xlink:href="#UNKNOWN" y="-350"/><use xlink:href="#UNKNOWN" x="350" y="-350"/><use xlink:href="#UNKNOWN" x="-350"/><use xlink:href="#UNKNOWN"/><use xlink:href="#UNKNOWN" x="350"/><use xlink:href="#UNKNOWN" x="-350" y="350"/><use xlink:href="#UNKNOWN" y="350"/><use xlink:href="#UNKNOWN" x="350" y="350"/></pattern><rect width="100%" height="100%" fill="url(#e)"/></g><g fi:class="KUsePattern" opacity=".42"><pattern id="g" width="350" height="350" patternUnits="userSpaceOnUse"><use xlink:href="#f" x="-350" y="-350"/><use xlink:href="#f" y="-350"/><use xlink:href="#f" x="350" y="-350"/><use xlink:href="#f" x="-350"/><use xlink:href="#f"/><use xlink:href="#f" x="350"/><use xlink:href="#f" x="-350" y="350"/><use xlink:href="#f" y="350"/><use xlink:href="#f" x="350" y="350"/></pattern><rect width="100%" height="100%" fill="url(#g)"/></g><rect width="100%" height="100%" fill="url(#e)" fi:class="KUsePattern" transform="translate(40 40)"/><g fi:class="KUsePattern"><pattern id="i" width="350" height="350" patternUnits="userSpaceOnUse"><use xlink:href="#h" x="-350" y="-350"/><use xlink:href="#h" y="-350"/><use xlink:href="#h" x="350" y="-350"/><use xlink:href="#h" x="-350"/><use xlink:href="#h"/><use xlink:href="#h" x="350"/><use xlink:href="#h" x="-350" y="350"/><use xlink:href="#h" y="350"/><use xlink:href="#h" x="350" y="350"/></pattern><rect width="100%" height="100%" fill="url(#i)"/></g><g fi:class="KUsePattern" opacity=".16"><pattern id="k" width="350" height="350" patternUnits="userSpaceOnUse"><use xlink:href="#j" x="-350" y="-350"/><use xlink:href="#j" y="-350"/><use xlink:href="#j" x="350" y="-350"/><use xlink:href="#j" x="-350"/><use xlink:href="#j"/><use xlink:href="#j" x="350"/><use xlink:href="#j" x="-350" y="350"/><use xlink:href="#j" y="350"/><use xlink:href="#j" x="350" y="350"/></pattern><rect width="100%" height="100%" fill="url(#k)"/></g></svg>