<svg xmlns="http://www.w3.org/2000/svg" xmlns:xlink="http://www.w3.org/1999/xlink" viewBox="0 0 577.99 524.83"><defs><style>.cls-1{fill:none;}.cls-2{clip-path:url(#clip-path);}.cls-3{fill:url(#linear-gradient);}</style><clipPath id="clip-path"><path class="cls-1" d="M509.34,462.28h-442a34,34,0,0,1-29.46-51l221-382.74a34,34,0,1,1,58.93,34L126.31,394.24h324.1L416,334.7H288.36a34,34,0,1,1,0-68H435.68a34,34,0,0,1,29.46,17L538.8,411.25a34,34,0,0,1-29.46,51Z"/></clipPath><linearGradient id="linear-gradient" x1="-3513.53" y1="-4137.42" x2="-3020.21" y2="-4137.42" gradientTransform="translate(3679.97 4399.84) scale(1.04 1)" gradientUnits="userSpaceOnUse"><stop offset="0" stop-color="#fff300"/><stop offset="1" stop-color="#009dff"/></linearGradient></defs><title>Asset 4</title><g id="Layer_2" data-name="Layer 2"><g id="Layer_1-2" data-name="Layer 1"><g class="cls-2"><rect class="cls-3" x="32.97" y="-20.81" width="512.06" height="566.46" transform="translate(557.93 -20.52) rotate(91.31)"/></g></g></g></svg>