<svg xmlns="http://www.w3.org/2000/svg" xmlns:xlink="http://www.w3.org/1999/xlink" xmlns:fi="http://pattern.flaticon.com/" x="0" y="0" width="2160" height="1080" viewBox="0 0 5040 2520"><rect x="0px" y="0px" width="100%" height="100%" opacity="1" fill="#2b2b2b"/><defs><path d="M465.167,211.614H280.245V26.691c0-8.424-11.439-26.69-34.316-26.69s-34.316,18.267-34.316,26.69v184.924H26.69    C18.267,211.614,0,223.053,0,245.929s18.267,34.316,26.69,34.316h184.924v184.924c0,8.422,11.438,26.69,34.316,26.69    s34.316-18.268,34.316-26.69V280.245H465.17c8.422,0,26.69-11.438,26.69-34.316S473.59,211.614,465.167,211.614z" transform="matrix(0.089474156498909 0 0 0.089474156498909 155.98164154216647 140.98165532213875)" id="L1_69" fill="#2980b9"/><path d="M465.167,211.614H280.245V26.691c0-8.424-11.439-26.69-34.316-26.69s-34.316,18.267-34.316,26.69v184.924H26.69    C18.267,211.614,0,223.053,0,245.929s18.267,34.316,26.69,34.316h184.924v184.924c0,8.422,11.438,26.69,34.316,26.69    s34.316-18.268,34.316-26.69V280.245H465.17c8.422,0,26.69-11.438,26.69-34.316S473.59,211.614,465.167,211.614z" transform="matrix(0.04787238724562165 0.04787238724562165 -0.04787238724562165 0.04787238724562165 308.94757218695923 214.44223929820046)" fill="#e74c3c"/><path d="M377.87,24.126C361.786,8.042,342.417,0,319.769,0H82.227C59.579,0,40.211,8.042,24.125,24.126   C8.044,40.212,0.002,59.576,0.002,82.228v237.543c0,22.647,8.042,42.014,24.123,58.101c16.086,16.085,35.454,24.127,58.102,24.127   h237.542c22.648,0,42.011-8.042,58.102-24.127c16.085-16.087,24.126-35.453,24.126-58.101V82.228   C401.993,59.58,393.951,40.212,377.87,24.126z M365.448,319.771c0,12.559-4.47,23.314-13.415,32.264   c-8.945,8.945-19.698,13.411-32.265,13.411H82.227c-12.563,0-23.317-4.466-32.264-13.411c-8.945-8.949-13.418-19.705-13.418-32.264   V82.228c0-12.562,4.473-23.316,13.418-32.264c8.947-8.946,19.701-13.418,32.264-13.418h237.542   c12.566,0,23.319,4.473,32.265,13.418c8.945,8.947,13.415,19.701,13.415,32.264V319.771L365.448,319.771z" transform="matrix(0.1492544710636139 0 0 0.1492544710636139 100.99999788653332 286)" id="L1_70" fill="#ecf0f1"/><path d="M377.87,24.126C361.786,8.042,342.417,0,319.769,0H82.227C59.579,0,40.211,8.042,24.125,24.126   C8.044,40.212,0.002,59.576,0.002,82.228v237.543c0,22.647,8.042,42.014,24.123,58.101c16.086,16.085,35.454,24.127,58.102,24.127   h237.542c22.648,0,42.011-8.042,58.102-24.127c16.085-16.087,24.126-35.453,24.126-58.101V82.228   C401.993,59.58,393.951,40.212,377.87,24.126z M365.448,319.771c0,12.559-4.47,23.314-13.415,32.264   c-8.945,8.945-19.698,13.411-32.265,13.411H82.227c-12.563,0-23.317-4.466-32.264-13.411c-8.945-8.949-13.418-19.705-13.418-32.264   V82.228c0-12.562,4.473-23.316,13.418-32.264c8.947-8.946,19.701-13.418,32.264-13.418h237.542   c12.566,0,23.319,4.473,32.265,13.418c8.945,8.947,13.415,19.701,13.415,32.264V319.771L365.448,319.771z" transform="matrix(-0.11285523428922692 -0.0846414204517231 -0.0846414204517231 0.11285523428922692 348.5238604623444 12.268737014523275)" fill="#2980b9"/><path d="M409.133,109.203c-19.608-33.592-46.205-60.189-79.798-79.796C295.736,9.801,259.058,0,219.273,0   c-39.781,0-76.47,9.801-110.063,29.407c-33.595,19.604-60.192,46.201-79.8,79.796C9.801,142.8,0,179.489,0,219.267   c0,39.78,9.804,76.463,29.407,110.062c19.607,33.592,46.204,60.189,79.799,79.798c33.597,19.605,70.283,29.407,110.063,29.407   s76.47-9.802,110.065-29.407c33.593-19.602,60.189-46.206,79.795-79.798c19.603-33.596,29.403-70.284,29.403-110.062   C438.533,179.485,428.732,142.795,409.133,109.203z" transform="matrix(0.029059183795466913 0.009686394116448152 -0.009686394116448152 0.029059183795466913 205.72089737916735 53.47825675616305)" id="L1_71" fill="#7d8a2e"/><path d="M409.133,109.203c-19.608-33.592-46.205-60.189-79.798-79.796C295.736,9.801,259.058,0,219.273,0   c-39.781,0-76.47,9.801-110.063,29.407c-33.595,19.604-60.192,46.201-79.8,79.796C9.801,142.8,0,179.489,0,219.267   c0,39.78,9.804,76.463,29.407,110.062c19.607,33.592,46.204,60.189,79.799,79.798c33.597,19.605,70.283,29.407,110.063,29.407   s76.47-9.802,110.065-29.407c33.593-19.602,60.189-46.206,79.795-79.798c19.603-33.596,29.403-70.284,29.403-110.062   C438.533,179.485,428.732,142.795,409.133,109.203z M353.742,297.208c-13.894,23.791-32.736,42.633-56.527,56.534   c-23.791,13.894-49.771,20.834-77.945,20.834c-28.167,0-54.149-6.94-77.943-20.834c-23.791-13.901-42.633-32.743-56.527-56.534   c-13.897-23.791-20.843-49.772-20.843-77.941c0-28.171,6.949-54.152,20.843-77.943c13.891-23.791,32.738-42.637,56.527-56.53   c23.791-13.895,49.772-20.84,77.943-20.84c28.173,0,54.154,6.945,77.945,20.84c23.791,13.894,42.634,32.739,56.527,56.53   c13.895,23.791,20.838,49.772,20.838,77.943C374.58,247.436,367.637,273.417,353.742,297.208z" transform="matrix(0.07586770635489892 -0.029179888275804998 0.029179888275804998 0.07586770635489892 288.9581150947483 152.73890615955088)" id="L1_72" fill="#263248"/><g transform="matrix(0.35433820705939517 0.35433820705939517 -0.35433820705939517 0.35433820705939517 222 226.73970757643627)" id="L1_74"><path d="M37.542,52.33c0.141,0.401,0.52,0.67,0.944,0.67H49.88c0.437,0,0.822-0.283,0.954-0.699l3.12-9.892   c0.117-0.374,0.006-0.782-0.285-1.044l-9-8.108c-0.379-0.342-0.953-0.343-1.335-0.003l-9,8.029   c-0.302,0.27-0.411,0.694-0.278,1.076L37.542,52.33z M43.997,35.343l7.855,7.077L49.146,51h-9.95l-3.031-8.669L43.997,35.343z" fill="#ffffff"/><path d="M59,0H1C0.447,0,0,0.448,0,1v58c0,0.552,0.447,1,1,1h58c0.553,0,1-0.448,1-1V1C60,0.448,59.553,0,59,0z M58,58H2V2h56V58z" fill="#ffffff"/><path d="M7,26h18c0.553,0,1-0.448,1-1V7c0-0.552-0.447-1-1-1H7C6.447,6,6,6.448,6,7v18C6,25.552,6.447,26,7,26z M8,8h16v16H8V8z" fill="#ffffff"/><path d="M35,26h18c0.347,0,0.668-0.18,0.851-0.474c0.183-0.295,0.199-0.663,0.044-0.973l-9-18c-0.34-0.678-1.449-0.678-1.789,0   l-9,18c-0.155,0.31-0.139,0.678,0.044,0.973C34.332,25.82,34.653,26,35,26z M44,9.236L51.382,24H36.618L44,9.236z" fill="#ffffff"/><path d="M16,54c5.514,0,10-4.486,10-10s-4.486-10-10-10S6,38.486,6,44S10.486,54,16,54z M16,36c4.411,0,8,3.589,8,8s-3.589,8-8,8   s-8-3.589-8-8S11.589,36,16,36z" fill="#ffffff"/></g></defs><g fi:class="KUsePattern" opacity="1"><pattern id="pattern_L1_72" width="350" height="350" patternUnits="userSpaceOnUse"><use xlink:href="#L1_72" x="-350" y="-350"/><use xlink:href="#L1_72" x="0" y="-350"/><use xlink:href="#L1_72" x="350" y="-350"/><use xlink:href="#L1_72" x="-350" y="0"/><use xlink:href="#L1_72" x="0" y="0"/><use xlink:href="#L1_72" x="350" y="0"/><use xlink:href="#L1_72" x="-350" y="350"/><use xlink:href="#L1_72" x="0" y="350"/><use xlink:href="#L1_72" x="350" y="350"/></pattern><rect x="0" y="0" width="100%" height="100%" fill="url(#pattern_L1_72)"/></g><g fi:class="KUsePattern"><pattern id="pattern_L1_69" width="350" height="350" patternUnits="userSpaceOnUse"><use xlink:href="#L1_69" x="-350" y="-350"/><use xlink:href="#L1_69" x="0" y="-350"/><use xlink:href="#L1_69" x="350" y="-350"/><use xlink:href="#L1_69" x="-350" y="0"/><use xlink:href="#L1_69" x="0" y="0"/><use xlink:href="#L1_69" x="350" y="0"/><use xlink:href="#L1_69" x="-350" y="350"/><use xlink:href="#L1_69" x="0" y="350"/><use xlink:href="#L1_69" x="350" y="350"/></pattern><rect x="0" y="0" width="100%" height="100%" fill="url(#pattern_L1_69)"/></g><g fi:class="KUsePattern" transform="matrix(1 0 0 1 20 20)"><pattern id="pattern_UNKNOWN" width="350" height="350" patternUnits="userSpaceOnUse"><use xlink:href="#UNKNOWN" x="-350" y="-350"/><use xlink:href="#UNKNOWN" x="0" y="-350"/><use xlink:href="#UNKNOWN" x="350" y="-350"/><use xlink:href="#UNKNOWN" x="-350" y="0"/><use xlink:href="#UNKNOWN" x="0" y="0"/><use xlink:href="#UNKNOWN" x="350" y="0"/><use xlink:href="#UNKNOWN" x="-350" y="350"/><use xlink:href="#UNKNOWN" x="0" y="350"/><use xlink:href="#UNKNOWN" x="350" y="350"/></pattern><rect x="0" y="0" width="100%" height="100%" fill="url(#pattern_UNKNOWN)"/></g><g fi:class="KUsePattern" opacity="0.42"><pattern id="pattern_L1_70" width="350" height="350" patternUnits="userSpaceOnUse"><use xlink:href="#L1_70" x="-350" y="-350"/><use xlink:href="#L1_70" x="0" y="-350"/><use xlink:href="#L1_70" x="350" y="-350"/><use xlink:href="#L1_70" x="-350" y="0"/><use xlink:href="#L1_70" x="0" y="0"/><use xlink:href="#L1_70" x="350" y="0"/><use xlink:href="#L1_70" x="-350" y="350"/><use xlink:href="#L1_70" x="0" y="350"/><use xlink:href="#L1_70" x="350" y="350"/></pattern><rect x="0" y="0" width="100%" height="100%" fill="url(#pattern_L1_70)"/></g><g fi:class="KUsePattern" transform="matrix(1 0 0 1 40 40)"><pattern id="pattern_UNKNOWN" width="350" height="350" patternUnits="userSpaceOnUse"><use xlink:href="#UNKNOWN" x="-350" y="-350"/><use xlink:href="#UNKNOWN" x="0" y="-350"/><use xlink:href="#UNKNOWN" x="350" y="-350"/><use xlink:href="#UNKNOWN" x="-350" y="0"/><use xlink:href="#UNKNOWN" x="0" y="0"/><use xlink:href="#UNKNOWN" x="350" y="0"/><use xlink:href="#UNKNOWN" x="-350" y="350"/><use xlink:href="#UNKNOWN" x="0" y="350"/><use xlink:href="#UNKNOWN" x="350" y="350"/></pattern><rect x="0" y="0" width="100%" height="100%" fill="url(#pattern_UNKNOWN)"/></g><g fi:class="KUsePattern"><pattern id="pattern_L1_71" width="350" height="350" patternUnits="userSpaceOnUse"><use xlink:href="#L1_71" x="-350" y="-350"/><use xlink:href="#L1_71" x="0" y="-350"/><use xlink:href="#L1_71" x="350" y="-350"/><use xlink:href="#L1_71" x="-350" y="0"/><use xlink:href="#L1_71" x="0" y="0"/><use xlink:href="#L1_71" x="350" y="0"/><use xlink:href="#L1_71" x="-350" y="350"/><use xlink:href="#L1_71" x="0" y="350"/><use xlink:href="#L1_71" x="350" y="350"/></pattern><rect x="0" y="0" width="100%" height="100%" fill="url(#pattern_L1_71)"/></g><g fi:class="KUsePattern" opacity="0.16"><pattern id="pattern_L1_74" width="350" height="350" patternUnits="userSpaceOnUse"><use xlink:href="#L1_74" x="-350" y="-350"/><use xlink:href="#L1_74" x="0" y="-350"/><use xlink:href="#L1_74" x="350" y="-350"/><use xlink:href="#L1_74" x="-350" y="0"/><use xlink:href="#L1_74" x="0" y="0"/><use xlink:href="#L1_74" x="350" y="0"/><use xlink:href="#L1_74" x="-350" y="350"/><use xlink:href="#L1_74" x="0" y="350"/><use xlink:href="#L1_74" x="350" y="350"/></pattern><rect x="0" y="0" width="100%" height="100%" fill="url(#pattern_L1_74)"/></g></svg>